<svg width="100" height="59" viewBox="0 0 100 59" fill="none" xmlns="http://www.w3.org/2000/svg">
<g filter="url(#filter0_d_9_82)">
<path fill-rule="evenodd" clip-rule="evenodd" d="M31.9833 34.1456V0H95.6056V34.1456H31.9833ZM88.7702 44.7776C88.3495 41.2415 87.1051 38.692 86.5355 37.8592H96V42.4715C95.0798 42.984 92.3457 44.1627 88.7702 44.7776ZM6.10833 42.8476H4V26.442C5.59722 22.1315 8.90667 13.3175 9.36667 12.5455C9.82667 11.7734 10.7083 11.7091 11.0917 11.7734L29.4917 10.8084L30.0667 36.2853C40.8639 36.4783 63.8767 36.8643 69.55 36.8643C68.0167 37.9452 67.1222 41.6895 66.8667 43.4266C55.9417 43.2336 32.7117 42.8476 27.1917 42.8476C26.6167 37.2504 21.4417 33.9692 20.8667 33.9692C20.7538 33.9692 20.5818 33.9395 20.3392 33.8975C19.3457 33.7256 17.1674 33.3488 13.0083 33.9692C8.86833 34.5869 6.68333 40.1455 6.10833 42.8476ZM9.94167 16.5986C10.7083 14.5913 12.1778 14.4755 12.8167 14.6685L22.7833 14.0895V26.249C18.8222 26.828 10.325 27.9474 8.025 27.793C5.725 27.6386 6.04445 25.7986 6.49167 24.8979C7.32222 22.9678 9.175 18.6059 9.94167 16.5986ZM23.55 43.4266C23.55 47.1574 20.4608 50.1818 16.65 50.1818C12.8392 50.1818 9.75 47.1574 9.75 43.4266C9.75 39.6958 12.8392 36.6713 16.65 36.6713C20.4608 36.6713 23.55 39.6958 23.55 43.4266ZM77.6 50.1818C81.4108 50.1818 84.5 47.1574 84.5 43.4266C84.5 39.6958 81.4108 36.6713 77.6 36.6713C73.7892 36.6713 70.7 39.6958 70.7 43.4266C70.7 47.1574 73.7892 50.1818 77.6 50.1818ZM47.516 3.65982L50.6824 4.88581C51.4446 4.3729 53.1451 3.26953 53.8487 2.95926C58.1585 0.769999 63.6117 2.43384 64.4033 2.95926L64.4563 2.98254C65.414 3.40258 70.7518 5.74355 71.5276 13.4677C71.8795 17.4084 70.0031 20.2398 69.2408 20.7361C71.7915 23.334 76.9457 28.6174 77.1568 28.9677C77.4206 29.4055 77.7724 30.6315 76.5411 31.9451C75.556 32.9959 74.0197 32.3829 73.3747 31.9451L65.8106 24.414C65.5174 24.6184 64.7199 25.1321 63.8756 25.5524C63.0312 25.9728 62.0578 26.3114 61.6767 26.4281L60.7972 29.6682H57.8067L56.7512 26.4281L54.5524 26.0779L52.0896 28.5298L49.451 26.9536L50.2426 23.6259L48.7474 22.0496L45.3171 22.8378L43.9978 20.0355L46.7244 17.6711L46.1967 15.657L43.0303 14.431L43.2942 11.1909L46.7244 10.6655L47.516 9.00162L45.3171 6.28694L47.516 3.65982ZM54.1126 6.28694C52.9399 6.9875 50.4713 9.10671 49.9787 11.979C49.363 15.5694 50.5944 18.6344 51.474 19.6852C52.3535 20.7361 55.4319 23.6259 59.126 23.3632C62.8201 23.1005 65.4588 21.2615 67.1299 18.3717C68.801 15.4818 68.0095 11.8914 67.1299 9.87733C66.2504 7.86321 63.3479 4.88581 58.5103 4.88581C56.4698 4.88581 54.7283 5.81989 54.1126 6.28694ZM60.0056 20.7361C57.6132 20.3157 54.3765 18.3425 53.0571 17.4084C52.3242 16.8246 51.2453 16.27 52.7933 18.7219C54.3413 21.1739 58.2465 21.7285 60.0056 21.6993C61.0024 21.5534 62.3979 21.1564 60.0056 20.7361Z" fill="#FFED00"/>
</g>
<defs>
<filter id="filter0_d_9_82" x="0" y="0" width="100" height="58.1818" filterUnits="userSpaceOnUse" color-interpolation-filters="sRGB">
<feFlood flood-opacity="0" result="BackgroundImageFix"/>
<feColorMatrix in="SourceAlpha" type="matrix" values="0 0 0 0 0 0 0 0 0 0 0 0 0 0 0 0 0 0 127 0" result="hardAlpha"/>
<feOffset dy="4"/>
<feGaussianBlur stdDeviation="2"/>
<feComposite in2="hardAlpha" operator="out"/>
<feColorMatrix type="matrix" values="0 0 0 0 0 0 0 0 0 0 0 0 0 0 0 0 0 0 0.35 0"/>
<feBlend mode="normal" in2="BackgroundImageFix" result="effect1_dropShadow_9_82"/>
<feBlend mode="normal" in="SourceGraphic" in2="effect1_dropShadow_9_82" result="shape"/>
</filter>
</defs>
</svg>
