<svg width="160" height="160" viewBox="0 0 160 160" fill="none" xmlns="http://www.w3.org/2000/svg">
<rect y="82.0823" width="113.012" height="113.012" rx="15" transform="rotate(-46.5783 0 82.0823)" fill="black" fill-opacity="0.35"/>
<g filter="url(#filter0_d_355_2)">
<path d="M78.2543 56.6881C76.0721 58.188 75.7975 58.188 75.5685 57.3547C75.1657 55.8882 75.1416 54.4105 75.3095 53.6884C75.4214 53.1328 75.6116 51.9218 76.8202 52.8551C77.2326 53.1735 77.4917 53.3551 78.2543 54.0217C78.9258 54.23 78.9258 54.0217 79.5972 54.0217V52.1885C79.5972 51.9218 77.4917 48.6888 78.2543 47.6889C79.017 46.6889 84.7243 46.8556 85.3045 47.6889C85.8847 48.5221 83.7937 52.1885 83.7937 52.1885V53.6884C83.7937 55.1882 83.9616 56.3548 83.9616 59.0212C85.3045 59.3545 87.3955 59.6879 88.7383 60.8544C89.4098 61.8543 89.4098 61.6877 89.8367 63.8542C89.9936 64.6501 89.7808 69.1871 89.8367 72.1868C88.8296 73.2978 86.7817 75.7532 86.6474 76.6864C86.5131 77.6197 86.2557 79.8528 86.1438 80.8528L83.7937 83.5192L83.9616 107.184C81.5556 107.739 76.24 108.15 74.2257 105.351V79.6862L71.8756 80.8528V105.351C71.5958 105.962 69.9044 107.684 67.0843 107.684C63.5592 107.684 57.4396 108.184 56.4324 105.351C56.4324 102.351 56.3412 94.6849 56.4324 90.8519C54.9776 91.2408 51.7438 93.1125 50.9697 98.6846C50.2982 103.518 52.3125 105.851 57.4396 109.017C59.398 110.128 68.2691 111.812 73.5542 111.35C81.1846 110.684 87.38 109.558 88.4938 106.517C88.6884 105.986 88.7936 105.741 88.8766 105.516C88.8813 105.275 88.8891 105.042 88.9062 104.821C88.2385 104.71 87.5888 104.684 86.8919 104.684C86.8919 104.684 86.6474 86.019 87.5633 84.6858C88.4793 83.3526 89.8367 83.1859 89.8367 83.1859C89.6129 80.9083 91.0884 76.3531 93.1027 75.0199C96.7901 72.5794 106.699 71.5202 109.05 71.0202C110.93 70.6203 109.029 69.687 111.659 69.5204C112.742 69.5204 113.136 72.3868 111.659 72.5201C109.812 72.6868 97.8735 74.6985 96.2154 75.3532C94.9492 75.8532 92.5225 77.5197 92.1868 80.8528C91.9182 83.5192 92.1868 83.5192 92.1868 83.5192C92.1868 83.5192 94.0668 83.6859 94.2011 85.6857C94.3354 87.6855 93.9213 99.1846 93.6975 104.684C93.573 104.688 93.4545 104.691 93.3397 104.692C92.8443 104.708 91.9637 104.741 91.081 104.771C90.8814 106.941 89.4152 110.286 85.0454 111.35C80.2541 112.517 76.3166 113.683 64.5664 112.517C55.1662 111.584 51.3966 107.684 50.0537 104.851C48.9553 101.018 48.3722 98.3642 50.0537 94.5183C52.3125 89.3521 54.8305 89.1854 56.4324 88.3521V64.5208C56.7122 63.0765 58.5811 59.1212 61.804 58.188C61.804 57.388 61.8806 57.1881 61.804 56.6881H60.6289L58.4468 58.188C58.111 58.1324 57.4396 57.888 57.4396 57.3547V53.6884C57.4396 53.4106 57.641 52.8551 58.4468 52.8551C59.2525 52.8551 60.2373 53.6328 60.6289 54.0217H61.804V52.8551C61.804 52.8551 59.1948 48.5221 59.7896 47.6889C60.3844 46.8556 67.2522 46.8556 67.9236 47.6889C68.595 48.5221 65.8326 52.8551 65.8326 52.8551V58.188C67.5879 58.5213 71.8756 61.3544 71.8756 65.5207V78.0197L74.2257 76.6864V65.1874C74.3935 63.6875 76.0386 60.3545 79.9329 59.0212C79.9329 58.3546 79.821 56.9658 79.9329 56.6881H78.2543Z" fill="#FFED00"/>
<path d="M106.364 58.6879C108.098 61.1877 110.181 65.854 110.316 66.5206C106.735 64.0208 99.942 58.5546 101.419 56.6881C102.896 54.8216 105.323 57.188 106.364 58.6879Z" fill="#FFED00"/>
<path d="M111.659 65.1874C113.002 60.5211 115.347 50.022 113.002 50.022C109.889 50.022 111.211 59.7434 111.659 65.1874Z" fill="#FFED00"/>
</g>
<defs>
<filter id="filter0_d_355_2" x="45" y="47" width="73" height="74" filterUnits="userSpaceOnUse" color-interpolation-filters="sRGB">
<feFlood flood-opacity="0" result="BackgroundImageFix"/>
<feColorMatrix in="SourceAlpha" type="matrix" values="0 0 0 0 0 0 0 0 0 0 0 0 0 0 0 0 0 0 127 0" result="hardAlpha"/>
<feOffset dy="4"/>
<feGaussianBlur stdDeviation="2"/>
<feComposite in2="hardAlpha" operator="out"/>
<feColorMatrix type="matrix" values="0 0 0 0 0 0 0 0 0 0 0 0 0 0 0 0 0 0 0.35 0"/>
<feBlend mode="normal" in2="BackgroundImageFix" result="effect1_dropShadow_355_2"/>
<feBlend mode="normal" in="SourceGraphic" in2="effect1_dropShadow_355_2" result="shape"/>
</filter>
</defs>
</svg>
