<svg width="504" height="438" viewBox="0 0 504 438" fill="none" xmlns="http://www.w3.org/2000/svg">
<path d="M98.8947 184.393C92.8777 178.698 92.6161 169.205 98.3104 163.188L155.37 102.895C161.064 96.8778 170.558 96.6162 176.575 102.31L236.868 159.37C242.885 165.064 243.146 174.558 237.452 180.575L180.393 240.868C174.698 246.885 165.205 247.146 159.188 241.452L98.8947 184.393Z" fill="black" fill-opacity="0.35"/>
<g filter="url(#filter0_d_338_7)">
<path fill-rule="evenodd" clip-rule="evenodd" d="M143.983 177.146V143H207.606V177.146H143.983ZM200.77 187.778C200.35 184.242 199.105 181.692 198.536 180.859H208V185.471C207.08 185.984 204.346 187.163 200.77 187.778ZM118.108 185.848H116V169.442C117.597 165.131 120.907 156.317 121.367 155.545C121.827 154.773 122.708 154.709 123.092 154.773L141.492 153.808L142.067 179.285C152.864 179.478 175.877 179.864 181.55 179.864C180.017 180.945 179.122 184.69 178.867 186.427C167.942 186.234 144.712 185.848 139.192 185.848C138.617 180.25 133.442 176.969 132.867 176.969C132.754 176.969 132.582 176.939 132.339 176.897C131.346 176.726 129.167 176.349 125.008 176.969C120.868 177.587 118.683 183.145 118.108 185.848ZM121.942 159.599C122.708 157.591 124.178 157.476 124.817 157.669L134.783 157.09V169.249C130.822 169.828 122.325 170.947 120.025 170.793C117.725 170.639 118.044 168.799 118.492 167.898C119.322 165.968 121.175 161.606 121.942 159.599ZM135.55 186.427C135.55 190.157 132.461 193.182 128.65 193.182C124.839 193.182 121.75 190.157 121.75 186.427C121.75 182.696 124.839 179.671 128.65 179.671C132.461 179.671 135.55 182.696 135.55 186.427ZM189.6 193.182C193.411 193.182 196.5 190.157 196.5 186.427C196.5 182.696 193.411 179.671 189.6 179.671C185.789 179.671 182.7 182.696 182.7 186.427C182.7 190.157 185.789 193.182 189.6 193.182ZM159.516 146.66L162.682 147.886C163.445 147.373 165.145 146.27 165.849 145.959C170.159 143.77 175.612 145.434 176.403 145.959L176.456 145.983C177.414 146.403 182.752 148.744 183.528 156.468C183.879 160.408 182.003 163.24 181.241 163.736C183.792 166.334 188.946 171.617 189.157 171.968C189.421 172.406 189.772 173.632 188.541 174.945C187.556 175.996 186.02 175.383 185.375 174.945L177.811 167.414C177.517 167.618 176.72 168.132 175.876 168.552C175.031 168.973 174.058 169.311 173.677 169.428L172.797 172.668H169.807L168.751 169.428L166.552 169.078L164.09 171.53L161.451 169.954L162.243 166.626L160.747 165.05L157.317 165.838L155.998 163.036L158.724 160.671L158.197 158.657L155.03 157.431L155.294 154.191L158.724 153.665L159.516 152.002L157.317 149.287L159.516 146.66ZM166.113 149.287C164.94 149.988 162.471 152.107 161.979 154.979C161.363 158.569 162.594 161.634 163.474 162.685C164.354 163.736 167.432 166.626 171.126 166.363C174.82 166.1 177.459 164.261 179.13 161.372C180.801 158.482 180.009 154.891 179.13 152.877C178.25 150.863 175.348 147.886 170.51 147.886C168.47 147.886 166.728 148.82 166.113 149.287ZM172.006 163.736C169.613 163.316 166.376 161.342 165.057 160.408C164.324 159.825 163.245 159.27 164.793 161.722C166.341 164.174 170.246 164.729 172.006 164.699C173.002 164.553 174.398 164.156 172.006 163.736Z" fill="#FFED00"/>
</g>
<path d="M96.7228 369.713C90.7059 364.018 90.4443 354.524 96.1386 348.507L153.198 288.215C158.892 282.198 168.386 281.936 174.403 287.63L234.696 344.69C240.713 350.384 240.974 359.878 235.28 365.895L178.221 426.188C172.527 432.205 163.033 432.466 157.016 426.772L96.7228 369.713Z" fill="black" fill-opacity="0.35"/>
<path d="M275.895 363.392C269.878 357.698 269.616 348.204 275.31 342.187L332.37 281.894C338.064 275.878 347.558 275.616 353.575 281.31L413.868 338.369C419.885 344.064 420.146 353.558 414.452 359.575L357.393 419.867C351.698 425.884 342.205 426.146 336.188 420.452L275.895 363.392Z" fill="black" fill-opacity="0.35"/>
<rect x="335" y="82.0823" width="113.012" height="113.012" rx="15" transform="rotate(-46.5783 335 82.0823)" fill="black" fill-opacity="0.35"/>
<rect x="251.223" y="169.831" width="113.012" height="113.012" rx="15" transform="rotate(-46.5783 251.223 169.831)" fill="black" fill-opacity="0.35"/>
<path d="M354.313 267.384C348.296 261.69 348.034 252.196 353.728 246.179L410.788 185.886C416.482 179.869 425.976 179.608 431.993 185.302L492.286 242.361C498.303 248.056 498.564 257.55 492.87 263.567L435.811 323.859C430.116 329.876 420.622 330.138 414.605 324.444L354.313 267.384Z" fill="black" fill-opacity="0.35"/>
<rect x="172.612" y="266.073" width="113.505" height="113.505" rx="15" transform="rotate(-46.5783 172.612 266.073)" fill="black" fill-opacity="0.35"/>
<rect x="2" y="264.082" width="113.012" height="113.012" rx="15" transform="rotate(-46.5783 2 264.082)" fill="black" fill-opacity="0.35"/>
<rect y="89.0823" width="113.012" height="113.012" rx="15" transform="rotate(-46.5783 0 89.0823)" fill="black" fill-opacity="0.35"/>
<g filter="url(#filter1_d_338_7)">
<path d="M423.08 81.8732L413.582 71.1433C412.818 71.36 410.929 72.3463 409.488 74.5573C407.687 77.3211 408.137 80.8978 409.222 82.6861C410.307 84.4744 412.927 86.1002 416.857 86.1002C420.001 86.1002 422.316 83.2822 423.08 81.8732Z" fill="#FFED00"/>
<path fill-rule="evenodd" clip-rule="evenodd" d="M400.972 59.5569C400.481 59.5568 397.206 55.0048 396.879 55.0047C396.551 55.0047 395.732 56.4679 395.405 56.4679C395.077 56.4679 393.767 55.9802 393.603 55.9802C393.44 55.9802 391.311 58.4188 391.311 58.5814C391.311 58.744 391.311 60.0446 391.311 60.2072C391.311 60.3697 390.492 62.1581 390.328 62.1581C390.164 62.1581 388.527 62.1581 388.363 62.1581C388.199 62.1581 386.482 64.9218 386.562 65.0844C386.642 65.247 387.053 66.8728 387.053 67.0353C387.053 67.1979 386.234 69.3114 386.07 69.3114C385.907 69.3114 384.924 69.6365 384.76 69.6365C384.597 69.6365 383.614 73.3758 383.778 73.5383C383.942 73.7009 384.597 74.5138 384.76 74.6764C384.924 74.839 384.924 76.9524 384.76 77.115C384.597 77.2776 383.287 77.7653 383.123 77.9279C382.959 78.0905 382.959 81.5045 383.123 81.6671C383.287 81.8297 384.269 82.48 384.433 82.6426C384.597 82.8051 384.924 85.0812 384.76 85.2438C384.597 85.4064 383.942 86.0567 383.778 86.2192C383.614 86.3818 384.597 90.6088 384.76 90.6088C384.924 90.6088 385.907 90.6088 386.07 90.6088C386.234 90.6088 387.217 92.5597 387.053 92.7222C386.889 92.8848 386.398 94.1854 386.398 94.348C386.398 94.5106 388.036 97.5995 388.363 97.5995C388.691 97.5995 389.837 97.5995 390.001 97.5995C390.164 97.5995 391.802 99.3878 391.802 99.5504C391.802 99.713 391.147 101.014 391.147 101.176C391.147 101.339 393.767 103.94 393.931 103.94C394.095 103.94 395.241 103.452 395.405 103.452C395.568 103.452 397.697 104.753 397.697 104.915C397.697 105.078 397.697 106.541 397.697 106.704C397.697 106.866 400.809 108.329 400.972 108.248C401.136 108.167 401.791 107.809 401.955 107.76C402.119 107.711 404.248 108.655 404.248 108.817C404.248 108.98 404.248 109.63 404.248 109.793C404.248 109.955 408.669 111.256 408.833 111.093C408.997 110.931 409.324 110.443 409.488 110.28C409.652 110.118 412.436 110.118 412.599 110.443C412.763 110.768 413.418 111.744 413.582 111.906C413.746 112.069 416.857 111.987 417.021 111.906C417.185 111.825 417.676 110.362 417.84 110.28C418.003 110.199 420.46 109.874 420.623 109.955C420.787 110.037 421.77 111.012 421.933 111.093C422.097 111.175 425.209 110.524 425.209 110.28C425.209 110.037 425.536 108.898 425.7 108.817C425.864 108.736 428.156 107.435 428.32 107.354C428.484 107.273 429.63 107.76 429.794 107.842C429.958 107.923 432.578 106.948 432.578 106.704C432.578 106.46 432.414 104.997 432.578 104.915C432.742 104.834 434.707 103.534 434.87 103.452C435.034 103.371 436.18 103.859 436.344 103.94C436.508 104.021 438.473 101.908 438.309 101.826C438.146 101.745 435.362 94.7544 435.362 94.348C435.362 93.9416 436.835 91.4216 437.163 91.2591C437.491 91.0965 443.877 91.9094 444.205 91.7468C444.532 91.5842 446.497 85.5689 446.333 85.2438C446.17 84.9186 441.093 81.6671 440.929 81.342C440.766 81.0168 440.766 78.4156 440.929 78.0905C441.093 77.7653 446.825 74.8389 446.989 74.5138C447.152 74.1886 445.515 68.0108 445.187 67.6856C444.86 67.3605 438.473 67.8482 438.146 67.6856C437.818 67.5231 436.344 65.7347 436.344 65.4096C436.344 65.0844 439.783 59.2317 439.783 58.744C439.783 58.2562 435.362 54.0293 434.87 54.0293C434.379 54.0293 428.975 57.7685 428.648 57.7685C428.32 57.7685 426.027 56.7931 425.864 56.4679C425.7 56.1428 426.027 49.8023 425.864 49.4772C425.7 49.152 418.986 47.8514 418.658 48.014C418.331 48.1766 415.874 54.1919 415.547 54.3544C415.219 54.517 412.599 54.517 412.272 54.3544C411.944 54.1919 408.505 48.9895 408.178 48.8269C407.85 48.6643 401.628 51.2655 401.464 51.5907C401.3 51.9158 402.61 57.9311 402.61 58.2562C402.61 58.5814 401.464 59.5569 400.972 59.5569ZM403.593 62.9709C403.593 62.9709 404.248 61.9955 403.593 61.3452C402.938 60.6949 402.119 61.1826 402.119 61.1826C401.518 61.5078 398.516 64.2715 398.516 64.2715C398.516 64.2715 395.896 66.8728 393.931 70.7746C391.632 75.3383 391.966 82.3174 392.293 84.9186C392.578 87.1771 397.206 98.575 406.54 101.176C415.874 103.777 421.933 101.826 425.209 100.526C427.829 99.4854 430.995 96.4073 432.25 94.9983C432.25 94.9983 432.905 94.0228 432.25 93.3725C431.595 92.7222 430.776 93.21 430.776 93.21C429.794 94.2938 426.748 96.3964 423.735 98.0872C420.258 100.038 414.858 100.736 410.634 99.8755C404.248 98.5749 400.317 95.1609 397.206 89.7959C394.095 84.4309 394.422 79.7162 395.732 74.6764C396.78 70.6445 399.99 65.4096 403.593 62.9709ZM399.171 70.7746C401.267 66.8728 402.938 65.7347 405.558 63.7838L406.868 62.9709L408.505 62.1581C413.855 60.4781 425.896 59.6219 431.268 69.6365C437.982 82.1548 430.613 89.4707 429.794 90.6088C428.975 91.7468 427.01 95.486 418.822 97.5995C412.272 99.2903 406.376 96.5699 404.248 94.9983C402.228 93.2642 397.992 88.8204 397.206 84.9186C396.223 80.0414 396.551 75.6518 399.171 70.7746Z" fill="#FFED00"/>
<path d="M418.167 93.8603C417.512 93.21 417.512 92.2345 418.167 90.7713C418.822 89.3082 420.132 87.9466 421.606 87.0321C423.08 86.1176 425.209 85.2438 425.864 85.4064C426.388 85.5364 428.156 87.5199 428.975 88.4953C428.811 88.983 427.297 90.7375 425.864 91.9094C424.43 93.0812 422.589 93.6977 421.442 94.0229C420.296 94.348 418.822 94.5106 418.167 93.8603Z" fill="#FFED00"/>
<path d="M401.477 86.1002C401.706 84.9622 406.357 85.4174 408.191 86.5879C410.484 88.0511 412.243 90.0708 412.94 91.7903C413.582 93.3726 414.115 94.92 413.431 95.0418C412.763 95.1609 409.694 94.9589 406.39 92.6032C403.593 90.6088 402.774 89.6333 402.446 89.1456C402.119 88.6579 401.313 86.9131 401.477 86.1002Z" fill="#FFED00"/>
<path d="M400.074 78.0833C399.246 77.6198 398.972 76.6536 399.205 75.0238C399.438 73.3939 400.345 71.6841 401.539 70.3719C402.732 69.0598 404.583 67.6073 405.273 67.5877C405.826 67.5721 408.125 69.049 409.206 69.7894C409.182 70.3177 408.185 72.473 407.103 74.0289C406.022 75.5848 404.382 76.7032 403.345 77.3413C402.308 77.9795 400.902 78.5468 400.074 78.0833Z" fill="#FFED00"/>
<path d="M423.08 81.8732L413.582 71.1433C412.818 71.36 410.929 72.3463 409.488 74.5573C407.687 77.3211 408.137 80.8978 409.222 82.6861C410.307 84.4744 412.927 86.1002 416.857 86.1002C420.001 86.1002 422.316 83.2822 423.08 81.8732Z" stroke="#F71C1C"/>
<path fill-rule="evenodd" clip-rule="evenodd" d="M400.972 59.5569C400.481 59.5568 397.206 55.0048 396.879 55.0047C396.551 55.0047 395.732 56.4679 395.405 56.4679C395.077 56.4679 393.767 55.9802 393.603 55.9802C393.44 55.9802 391.311 58.4188 391.311 58.5814C391.311 58.744 391.311 60.0446 391.311 60.2072C391.311 60.3697 390.492 62.1581 390.328 62.1581C390.164 62.1581 388.527 62.1581 388.363 62.1581C388.199 62.1581 386.482 64.9218 386.562 65.0844C386.642 65.247 387.053 66.8728 387.053 67.0353C387.053 67.1979 386.234 69.3114 386.07 69.3114C385.907 69.3114 384.924 69.6365 384.76 69.6365C384.597 69.6365 383.614 73.3758 383.778 73.5383C383.942 73.7009 384.597 74.5138 384.76 74.6764C384.924 74.839 384.924 76.9524 384.76 77.115C384.597 77.2776 383.287 77.7653 383.123 77.9279C382.959 78.0905 382.959 81.5045 383.123 81.6671C383.287 81.8297 384.269 82.48 384.433 82.6426C384.597 82.8051 384.924 85.0812 384.76 85.2438C384.597 85.4064 383.942 86.0567 383.778 86.2192C383.614 86.3818 384.597 90.6088 384.76 90.6088C384.924 90.6088 385.907 90.6088 386.07 90.6088C386.234 90.6088 387.217 92.5597 387.053 92.7222C386.889 92.8848 386.398 94.1854 386.398 94.348C386.398 94.5106 388.036 97.5995 388.363 97.5995C388.691 97.5995 389.837 97.5995 390.001 97.5995C390.164 97.5995 391.802 99.3878 391.802 99.5504C391.802 99.713 391.147 101.014 391.147 101.176C391.147 101.339 393.767 103.94 393.931 103.94C394.095 103.94 395.241 103.452 395.405 103.452C395.568 103.452 397.697 104.753 397.697 104.915C397.697 105.078 397.697 106.541 397.697 106.704C397.697 106.866 400.809 108.329 400.972 108.248C401.136 108.167 401.791 107.809 401.955 107.76C402.119 107.711 404.248 108.655 404.248 108.817C404.248 108.98 404.248 109.63 404.248 109.793C404.248 109.955 408.669 111.256 408.833 111.093C408.997 110.931 409.324 110.443 409.488 110.28C409.652 110.118 412.436 110.118 412.599 110.443C412.763 110.768 413.418 111.744 413.582 111.906C413.746 112.069 416.857 111.987 417.021 111.906C417.185 111.825 417.676 110.362 417.84 110.28C418.003 110.199 420.46 109.874 420.623 109.955C420.787 110.037 421.77 111.012 421.933 111.093C422.097 111.175 425.209 110.524 425.209 110.28C425.209 110.037 425.536 108.898 425.7 108.817C425.864 108.736 428.156 107.435 428.32 107.354C428.484 107.273 429.63 107.76 429.794 107.842C429.958 107.923 432.578 106.948 432.578 106.704C432.578 106.46 432.414 104.997 432.578 104.915C432.742 104.834 434.707 103.534 434.87 103.452C435.034 103.371 436.18 103.859 436.344 103.94C436.508 104.021 438.473 101.908 438.309 101.826C438.146 101.745 435.362 94.7544 435.362 94.348C435.362 93.9416 436.835 91.4216 437.163 91.2591C437.491 91.0965 443.877 91.9094 444.205 91.7468C444.532 91.5842 446.497 85.5689 446.333 85.2438C446.17 84.9186 441.093 81.6671 440.929 81.342C440.766 81.0168 440.766 78.4156 440.929 78.0905C441.093 77.7653 446.825 74.8389 446.989 74.5138C447.152 74.1886 445.515 68.0108 445.187 67.6856C444.86 67.3605 438.473 67.8482 438.146 67.6856C437.818 67.5231 436.344 65.7347 436.344 65.4096C436.344 65.0844 439.783 59.2317 439.783 58.744C439.783 58.2562 435.362 54.0293 434.87 54.0293C434.379 54.0293 428.975 57.7685 428.648 57.7685C428.32 57.7685 426.027 56.7931 425.864 56.4679C425.7 56.1428 426.027 49.8023 425.864 49.4772C425.7 49.152 418.986 47.8514 418.658 48.014C418.331 48.1766 415.874 54.1919 415.547 54.3544C415.219 54.517 412.599 54.517 412.272 54.3544C411.944 54.1919 408.505 48.9895 408.178 48.8269C407.85 48.6643 401.628 51.2655 401.464 51.5907C401.3 51.9158 402.61 57.9311 402.61 58.2562C402.61 58.5814 401.464 59.5569 400.972 59.5569ZM403.593 62.9709C403.593 62.9709 404.248 61.9955 403.593 61.3452C402.938 60.6949 402.119 61.1826 402.119 61.1826C401.518 61.5078 398.516 64.2715 398.516 64.2715C398.516 64.2715 395.896 66.8728 393.931 70.7746C391.632 75.3383 391.966 82.3174 392.293 84.9186C392.578 87.1771 397.206 98.575 406.54 101.176C415.874 103.777 421.933 101.826 425.209 100.526C427.829 99.4854 430.995 96.4073 432.25 94.9983C432.25 94.9983 432.905 94.0228 432.25 93.3725C431.595 92.7222 430.776 93.21 430.776 93.21C429.794 94.2938 426.748 96.3964 423.735 98.0872C420.258 100.038 414.858 100.736 410.634 99.8755C404.248 98.5749 400.317 95.1609 397.206 89.7959C394.095 84.4309 394.422 79.7162 395.732 74.6764C396.78 70.6445 399.99 65.4096 403.593 62.9709ZM399.171 70.7746C401.267 66.8728 402.938 65.7347 405.558 63.7838L406.868 62.9709L408.505 62.1581C413.855 60.4781 425.896 59.6219 431.268 69.6365C437.982 82.1548 430.613 89.4707 429.794 90.6088C428.975 91.7468 427.01 95.486 418.822 97.5995C412.272 99.2903 406.376 96.5699 404.248 94.9983C402.228 93.2642 397.992 88.8204 397.206 84.9186C396.223 80.0414 396.551 75.6518 399.171 70.7746Z" stroke="#F71C1C"/>
<path d="M418.167 93.8603C417.512 93.21 417.512 92.2345 418.167 90.7713C418.822 89.3082 420.132 87.9466 421.606 87.0321C423.08 86.1176 425.209 85.2438 425.864 85.4064C426.388 85.5364 428.156 87.5199 428.975 88.4953C428.811 88.983 427.297 90.7375 425.864 91.9094C424.43 93.0812 422.589 93.6977 421.442 94.0229C420.296 94.348 418.822 94.5106 418.167 93.8603Z" stroke="#F71C1C"/>
<path d="M401.477 86.1002C401.706 84.9622 406.357 85.4174 408.191 86.5879C410.484 88.0511 412.243 90.0708 412.94 91.7903C413.582 93.3726 414.115 94.92 413.431 95.0418C412.763 95.1609 409.694 94.9589 406.39 92.6032C403.593 90.6088 402.774 89.6333 402.446 89.1456C402.119 88.6579 401.313 86.9131 401.477 86.1002Z" stroke="#F71C1C"/>
<path d="M400.074 78.0833C399.246 77.6198 398.972 76.6536 399.205 75.0238C399.438 73.3939 400.345 71.6841 401.539 70.3719C402.732 69.0598 404.583 67.6073 405.273 67.5877C405.826 67.5721 408.125 69.049 409.206 69.7894C409.182 70.3177 408.185 72.473 407.103 74.0289C406.022 75.5848 404.382 76.7032 403.345 77.3413C402.308 77.9795 400.902 78.5468 400.074 78.0833Z" stroke="#F71C1C"/>
</g>
<g filter="url(#filter2_d_338_7)">
<path d="M207.002 271.922L207.67 261.231L206.668 261.064L206 272.256C206.668 272.813 208.504 273.994 210.508 274.261C212.512 274.528 214.126 273.37 214.682 272.758C214.905 269.583 215.35 263.001 215.35 262.066C214.515 261.231 213.013 260.395 211.009 260.395C210.341 260.395 209.228 260.729 209.005 261.064C208.783 263.959 208.371 269.717 208.504 269.583C208.671 269.416 210.341 269.249 211.677 269.583C212.745 269.851 213.569 270.586 213.847 270.92C213.627 272.686 212.654 273.259 210.842 273.259C209.339 273.259 207.837 272.479 207.002 271.922Z" fill="#FCE116"/>
<path d="M211.51 259.894C210.441 259.493 210.341 259.393 209.84 258.558C210.508 253.546 211.844 250.539 213.18 247.532C214.515 244.525 216.519 242.353 217.855 241.518C219.19 240.682 222.029 239.179 226.537 241.184C230.938 243.141 233.549 245.694 235.386 249.035C236.889 252.042 237.557 255.216 240.562 261.899C244.235 267.412 251.081 266.409 254.754 265.574C257.926 264.853 268.575 262.29 275.458 263.235C283.973 264.405 285.81 267.412 287.479 270.419C288.992 273.144 290.151 279.106 289.984 283.616C289.792 288.795 288.147 292.136 287.813 292.638C287.479 293.139 286.144 294.141 284.975 293.306C283.806 292.805 284.172 290.94 284.474 290.299C285.81 287.459 285.754 281.779 285.476 279.44C285.253 277.157 284.14 271.521 281.469 269.249C278.129 266.409 267.746 267.122 266.442 267.412C264.939 267.746 254.754 269.751 253.418 269.918C252.083 270.085 247.742 270.92 242.733 268.748C236.724 266.143 234.217 257.722 234.05 257.221C233.917 256.82 232.715 252.878 231.713 251.04C230.711 249.202 229.542 247.927 227.539 246.195C225.412 244.358 222.363 243.522 220.526 244.692C218.355 246.362 217.02 248.868 216.185 251.04C215.35 253.212 214.515 255.216 213.68 259.226C213.18 259.727 212.578 260.295 211.51 259.894Z" fill="#FCE116"/>
<path d="M227.873 252.042H230.878C232.047 254.938 233.85 259.627 234.384 261.231C234.919 262.834 236.722 265.908 238.558 267.412C238.725 267.857 239.493 269.416 241.23 272.089C242.966 274.762 246.962 276.544 248.743 277.101C255.255 278.939 258.594 278.103 262.602 275.431C266.609 272.758 267.833 270.085 268.612 268.247C269.058 268.191 270.416 268.047 272.286 267.913C274.156 267.779 275.514 268.08 275.959 268.247L279.632 272.089L276.794 277.101L270.783 275.765L268.612 277.936L269.948 284.118L265.106 287.125L260.431 282.781L257.092 283.449L254.921 289.129L249.244 288.795L247.909 282.781L244.402 281.445L239.393 285.287L235.052 281.946L237.223 275.932L235.052 272.925L228.874 273.259L227.038 268.08L232.047 264.238L231.88 260.729L226.537 257.722L227.873 252.042Z" fill="#FCE116"/>
<path d="M281.135 292.136L280.467 291.301L271.785 298.318C271.618 298.874 271.618 300.489 272.953 302.494C274.289 304.499 276.404 305 277.295 305L285.476 298.652C285.476 298.206 285.342 297.014 284.808 295.812C284.274 294.609 282.804 293.417 282.137 292.972L275.291 298.151C275.514 298.151 276.226 298.585 277.295 300.322C278.363 302.06 278.185 302.94 277.962 303.162L276.794 303.998C276.181 303.775 274.723 303.095 273.788 302.16C272.853 301.224 272.731 299.431 272.786 298.652L281.135 292.136Z" fill="#FCE116"/>
<path d="M237.557 239.513L233.215 243.522L236.555 249.202L239.226 255.383C240.005 253.713 242.465 249.804 246.072 247.532C249.678 245.26 254.476 245.249 256.424 245.527C258.65 245.805 263.904 247.465 267.11 251.875C270.315 256.286 270.56 260.507 270.282 262.066C271.618 262.01 273.788 261.899 275.625 262.066C277.239 262.213 279.02 262.79 279.799 263.235L281.97 262.4L281.302 256.386L275.124 254.882L274.289 252.711L277.962 247.532L274.289 242.687L268.445 244.859L266.609 243.355L267.11 237.007L261.433 234.835L257.593 239.847L254.921 239.513L251.916 234L246.072 235.169L245.571 241.351L243.066 242.52L237.557 239.513Z" fill="#FCE116"/>
<path d="M207.002 271.922L207.67 261.231L206.668 261.064L206 272.256C206.668 272.813 208.504 273.994 210.508 274.261C212.512 274.528 214.126 273.37 214.682 272.758C214.905 269.583 215.35 263.001 215.35 262.066C214.515 261.231 213.013 260.395 211.009 260.395C210.341 260.395 209.228 260.729 209.005 261.064C208.783 263.959 208.371 269.717 208.504 269.583C208.671 269.416 210.341 269.249 211.677 269.583C212.745 269.851 213.569 270.586 213.847 270.92C213.627 272.686 212.654 273.259 210.842 273.259C209.339 273.259 207.837 272.479 207.002 271.922Z" stroke="black"/>
<path d="M211.51 259.894C210.441 259.493 210.341 259.393 209.84 258.558C210.508 253.546 211.844 250.539 213.18 247.532C214.515 244.525 216.519 242.353 217.855 241.518C219.19 240.682 222.029 239.179 226.537 241.184C230.938 243.141 233.549 245.694 235.386 249.035C236.889 252.042 237.557 255.216 240.562 261.899C244.235 267.412 251.081 266.409 254.754 265.574C257.926 264.853 268.575 262.29 275.458 263.235C283.973 264.405 285.81 267.412 287.479 270.419C288.992 273.144 290.151 279.106 289.984 283.616C289.792 288.795 288.147 292.136 287.813 292.638C287.479 293.139 286.144 294.141 284.975 293.306C283.806 292.805 284.172 290.94 284.474 290.299C285.81 287.459 285.754 281.779 285.476 279.44C285.253 277.157 284.14 271.521 281.469 269.249C278.129 266.409 267.746 267.122 266.442 267.412C264.939 267.746 254.754 269.751 253.418 269.918C252.083 270.085 247.742 270.92 242.733 268.748C236.724 266.143 234.217 257.722 234.05 257.221C233.917 256.82 232.715 252.878 231.713 251.04C230.711 249.202 229.542 247.927 227.539 246.195C225.412 244.358 222.363 243.522 220.526 244.692C218.355 246.362 217.02 248.868 216.185 251.04C215.35 253.212 214.515 255.216 213.68 259.226C213.18 259.727 212.578 260.295 211.51 259.894Z" stroke="black"/>
<path d="M227.873 252.042H230.878C232.047 254.938 233.85 259.627 234.384 261.231C234.919 262.834 236.722 265.908 238.558 267.412C238.725 267.857 239.493 269.416 241.23 272.089C242.966 274.762 246.962 276.544 248.743 277.101C255.255 278.939 258.594 278.103 262.602 275.431C266.609 272.758 267.833 270.085 268.612 268.247C269.058 268.191 270.416 268.047 272.286 267.913C274.156 267.779 275.514 268.08 275.959 268.247L279.632 272.089L276.794 277.101L270.783 275.765L268.612 277.936L269.948 284.118L265.106 287.125L260.431 282.781L257.092 283.449L254.921 289.129L249.244 288.795L247.909 282.781L244.402 281.445L239.393 285.287L235.052 281.946L237.223 275.932L235.052 272.925L228.874 273.259L227.038 268.08L232.047 264.238L231.88 260.729L226.537 257.722L227.873 252.042Z" stroke="black"/>
<path d="M281.135 292.136L280.467 291.301L271.785 298.318C271.618 298.874 271.618 300.489 272.953 302.494C274.289 304.499 276.404 305 277.295 305L285.476 298.652C285.476 298.206 285.342 297.014 284.808 295.812C284.274 294.609 282.804 293.417 282.137 292.972L275.291 298.151C275.514 298.151 276.226 298.585 277.295 300.322C278.363 302.06 278.185 302.94 277.962 303.162L276.794 303.998C276.181 303.775 274.723 303.095 273.788 302.16C272.853 301.224 272.731 299.431 272.786 298.652L281.135 292.136Z" stroke="black"/>
<path d="M237.557 239.513L233.215 243.522L236.555 249.202L239.226 255.383C240.005 253.713 242.465 249.804 246.072 247.532C249.678 245.26 254.476 245.249 256.424 245.527C258.65 245.805 263.904 247.465 267.11 251.875C270.315 256.286 270.56 260.507 270.282 262.066C271.618 262.01 273.788 261.899 275.625 262.066C277.239 262.213 279.02 262.79 279.799 263.235L281.97 262.4L281.302 256.386L275.124 254.882L274.289 252.711L277.962 247.532L274.289 242.687L268.445 244.859L266.609 243.355L267.11 237.007L261.433 234.835L257.593 239.847L254.921 239.513L251.916 234L246.072 235.169L245.571 241.351L243.066 242.52L237.557 239.513Z" stroke="black"/>
</g>
<g filter="url(#filter3_d_338_7)">
<path fill-rule="evenodd" clip-rule="evenodd" d="M132.411 345.016C136.85 338.865 147.438 332.959 152.697 331.037C156.569 329.174 168.301 326.215 180.091 327.193C193.828 328.333 196.117 334.635 196.785 336.476C196.834 336.61 196.874 336.72 196.909 336.804C197.43 338.027 195.696 367.905 192.055 377.341C188.534 386.465 183.553 386.439 181.347 386.427C181.307 386.427 181.267 386.427 181.228 386.427C181.196 386.427 181.163 386.427 181.132 386.427C180.711 386.427 179.701 386.434 178.294 386.444L178.292 386.444C172.745 386.483 161.036 386.566 154.951 386.427C153.173 386.386 151.443 386.554 149.748 386.718C144.171 387.26 138.985 387.763 133.799 380.661C127.037 371.4 126.863 356.548 127.037 355.15C127.051 355.032 127.062 354.916 127.073 354.798C127.194 353.527 127.333 352.053 132.411 345.016ZM149.75 336.804C143.993 339.704 139.589 343.443 137.786 345.54C135.532 348.161 133.799 351.306 132.411 355.15H191.014C192.286 350.432 194.551 340.333 193.442 337.677C192.055 334.357 185.986 329.814 173.503 331.037C163.516 332.016 155.506 333.903 149.75 336.804ZM142.468 345.016C141.081 345.854 138.075 350.141 136.746 352.18L136.226 353.228C153.506 353.345 188.761 353.508 189.454 353.228C190.028 352.997 190.222 351.004 190.489 348.265C190.625 346.866 190.78 345.272 191.014 343.618C191.569 339.704 191.246 338.493 191.014 338.376L187.72 338.9L184.426 344.142L189.454 347.287L182.345 345.016L186.16 336.804C185.062 336.396 181.999 335.371 178.531 334.532C175.31 333.753 174.782 333.818 170.137 334.392C169.782 334.435 169.402 334.482 168.995 334.532C163.273 335.231 155.645 337.677 152.697 338.9C149.75 340.123 148.131 341.23 146.976 342.045L149.75 343.094L146.109 350.782L146.976 346.239C146.051 346.006 143.855 345.435 142.468 345.016ZM169.862 345.016L166.221 339.25L178.704 349.559L174.196 347.986L172.116 350.607L162.927 350.957L168.822 348.161L163.447 345.016H169.862Z" fill="#FFED00"/>
</g>
<g filter="url(#filter4_d_338_7)">
<path fill-rule="evenodd" clip-rule="evenodd" d="M313.243 141.627L307.349 139.348L303.257 144.231L307.349 149.277L305.876 152.369L299.491 153.346L299 159.368L304.894 161.647L305.876 165.391L300.801 169.785L303.257 174.994L309.641 173.529L312.425 176.459L310.951 182.644L315.863 185.574L320.446 181.016L324.539 181.667L326.504 187.69H332.07L333.707 181.667C334.417 181.45 336.228 180.821 337.8 180.04C339.372 179.258 340.856 178.303 341.402 177.924L355.481 191.922C356.682 192.735 359.541 193.875 361.375 191.922C363.667 189.48 363.012 187.201 362.521 186.387C362.128 185.736 352.534 175.916 347.787 171.087C349.206 170.165 352.698 164.902 352.043 157.578C350.57 142.929 340.256 138.697 338.782 138.046C337.309 137.069 327.159 133.977 319.137 138.046C317.827 138.622 314.662 140.673 313.243 141.627ZM311.933 154.811C312.85 149.472 317.445 145.533 319.628 144.231C320.774 143.363 324.015 141.627 327.814 141.627C336.818 141.627 342.22 147.161 343.858 150.904C345.495 154.648 346.968 161.321 343.858 166.693C340.747 172.064 335.836 175.482 328.96 175.97C322.084 176.459 316.354 171.087 314.717 169.134C313.079 167.181 310.787 161.484 311.933 154.811Z" fill="#FFED00"/>
<path d="M317.663 164.902C320.119 166.638 326.144 170.306 330.597 171.087C335.05 171.869 332.452 172.607 330.597 172.878C327.322 172.932 320.054 171.901 317.172 167.344C314.291 162.786 316.299 163.817 317.663 164.902Z" fill="#FFED00"/>
</g>
<path d="M44.0441 232.918C44.124 229.574 47.473 228.246 49.1375 228H102.867C104.266 228 107.561 228.738 107.561 232.426C107.561 239.803 107.917 240.049 105.819 240.049C102.867 240.049 103.467 236.901 103.467 234.475C103.467 232.049 101.07 231.606 99.8712 231.688H51.9338C48.4184 231.819 48.6405 233.328 48.6381 234.475C48.6048 250.54 48.5582 283.571 48.6381 287.177C48.718 290.784 52.2667 291.303 54.0311 291.112H98.9724C102.728 291.112 103.533 288.707 103.467 287.505C103.433 284.008 103.387 275.473 103.467 269.309C103.546 263.146 108.061 262.015 108.061 265.867C108.094 273.271 108.14 288.685 108.061 291.112C107.981 293.538 104.565 294.691 102.867 294.964C86.4887 294.991 52.8127 295.029 49.1375 294.964C45.4623 294.898 44.2106 292.368 44.0441 291.112C44.0108 273.107 43.9642 236.262 44.0441 232.918Z" fill="#FFED00"/>
<path d="M110.358 237.918C110.657 237.453 111.616 236.377 113.054 235.786C114.492 235.196 115.717 233.628 116.15 232.918C119.213 231.142 125.038 229.328 123.84 236.278C122.741 237.918 121.343 239.557 121.343 240.458C121.343 240.817 121.296 241.175 121.189 241.523C122.45 241.406 123.674 241.758 122.342 243.737C120.245 246.852 110.158 260.703 108.86 260.211C107.821 259.818 110.224 257.152 111.556 255.867L120.245 244.475L119.322 244.074C115.02 249.213 96.9699 271.348 87.4874 282.997L78.7988 286.604C77.9665 287.259 76.4019 288.013 76.8014 285.784C77.2008 283.555 77.3673 279.5 77.4006 277.752L110.358 237.918Z" fill="#FFED00"/>
<path d="M60.2417 236.878C60.3201 236.725 60.4324 236.649 60.5787 236.649H62.0128C62.0703 236.649 62.1199 236.672 62.1617 236.717C62.2035 236.762 62.2244 236.815 62.2244 236.878V242.345C62.2244 242.407 62.2035 242.46 62.1617 242.506C62.1199 242.551 62.0703 242.573 62.0128 242.573H60.5944C60.5369 242.573 60.4873 242.551 60.4455 242.506C60.4037 242.46 60.3828 242.407 60.3828 242.345V239.721L59.8107 240.94C59.795 240.979 59.7584 241.024 59.701 241.075C59.6435 241.126 59.5704 241.151 59.4815 241.151H58.9486C58.8598 241.151 58.7867 241.126 58.7292 241.075C58.6717 241.024 58.6352 240.979 58.6195 240.94L58.0474 239.721V242.345C58.0474 242.407 58.0265 242.46 57.9847 242.506C57.9429 242.551 57.8933 242.573 57.8358 242.573H56.4174C56.3599 242.573 56.3103 242.551 56.2685 242.506C56.2267 242.46 56.2058 242.407 56.2058 242.345V236.878C56.2058 236.815 56.2267 236.762 56.2685 236.717C56.3103 236.672 56.3599 236.649 56.4174 236.649H57.8515C57.9978 236.649 58.1101 236.725 58.1885 236.878L59.2151 238.909L60.2417 236.878Z" fill="#FFED00"/>
<path d="M69.1098 242.277C69.1307 242.311 69.1412 242.348 69.1412 242.387C69.1412 242.438 69.1229 242.483 69.0863 242.522C69.055 242.556 69.0158 242.573 68.9688 242.573H66.9469C66.8267 242.573 66.7327 242.528 66.6648 242.438L65.4579 240.551H65.2228V242.345C65.2228 242.407 65.2019 242.46 65.1601 242.506C65.1183 242.551 65.0687 242.573 65.0112 242.573H63.3969C63.3394 242.573 63.2897 242.551 63.248 242.506C63.2062 242.46 63.1853 242.407 63.1853 242.345V236.878C63.1853 236.815 63.2062 236.762 63.248 236.717C63.2897 236.672 63.3394 236.649 63.3969 236.649H65.0112C65.0687 236.649 65.1183 236.672 65.1601 236.717C65.2019 236.762 65.2228 236.815 65.2228 236.878V238.621H65.3952L66.5394 236.793C66.6177 236.697 66.7144 236.649 66.8293 236.649H68.718C68.765 236.649 68.8042 236.669 68.8355 236.708C68.8721 236.742 68.8904 236.784 68.8904 236.835C68.8904 236.88 68.8773 236.92 68.8512 236.954L66.9939 239.4L69.1098 242.277Z" fill="#FFED00"/>
<path d="M71.4029 242.285C71.335 242.477 71.2175 242.573 71.0503 242.573H69.5691C69.5221 242.573 69.4803 242.556 69.4437 242.522C69.4124 242.483 69.3967 242.438 69.3967 242.387L69.4046 242.336L71.113 236.928C71.1339 236.855 71.1731 236.79 71.2305 236.734C71.288 236.677 71.3664 236.649 71.4656 236.649H73.6442C73.7435 236.649 73.8219 236.677 73.8793 236.734C73.9368 236.79 73.976 236.855 73.9969 236.928L75.7053 242.336L75.7131 242.387C75.7131 242.438 75.6949 242.483 75.6583 242.522C75.6269 242.556 75.5877 242.573 75.5407 242.573H74.0596C73.8924 242.573 73.7748 242.477 73.7069 242.285L73.511 241.693H71.5988L71.4029 242.285ZM72.5549 238.282L71.9985 240.043H73.1113L72.5549 238.282Z" fill="#FFED00"/>
<path d="M81.3917 236.649C81.4492 236.649 81.4988 236.672 81.5406 236.717C81.5824 236.762 81.6033 236.815 81.6033 236.878V240.754H82.003C82.0604 240.754 82.1101 240.776 82.1519 240.821C82.1937 240.866 82.2146 240.92 82.2146 240.982V243.394C82.2146 243.456 82.1937 243.51 82.1519 243.555C82.1101 243.6 82.0604 243.623 82.003 243.623H80.7334C80.676 243.623 80.6263 243.6 80.5845 243.555C80.5427 243.51 80.5218 243.456 80.5218 243.394V242.573H77.8495V243.394C77.8495 243.456 77.8286 243.51 77.7868 243.555C77.745 243.6 77.6954 243.623 77.6379 243.623H76.3762C76.3187 243.623 76.2691 243.6 76.2273 243.555C76.1855 243.515 76.1646 243.462 76.1646 243.394V240.982C76.1646 240.92 76.1855 240.866 76.2273 240.821C76.2691 240.776 76.3187 240.754 76.3762 240.754H76.5016C76.674 240.754 76.8072 240.593 76.9013 240.271C76.9953 239.95 77.0423 239.36 77.0423 238.502V236.878C77.0423 236.815 77.0632 236.762 77.105 236.717C77.1468 236.672 77.1964 236.649 77.2539 236.649H81.3917ZM78.9231 238.672C78.9231 239.134 78.8996 239.532 78.8526 239.865C78.8056 240.192 78.7272 240.488 78.6175 240.754H79.7225V238.384H78.9231V238.672Z" fill="#FFED00"/>
<path d="M61.9188 247.14C61.9762 247.14 62.0259 247.162 62.0677 247.207C62.1095 247.253 62.1304 247.306 62.1304 247.368V248.731C62.1304 248.793 62.1095 248.847 62.0677 248.892C62.0259 248.937 61.9762 248.959 61.9188 248.959H60.2339V252.836C60.2339 252.898 60.213 252.951 60.1712 252.996C60.1294 253.041 60.0797 253.064 60.0223 253.064H58.4079C58.3504 253.064 58.3008 253.041 58.259 252.996C58.2172 252.951 58.1963 252.898 58.1963 252.836V248.959H56.5114C56.454 248.959 56.4043 248.937 56.3625 248.892C56.3207 248.847 56.2998 248.793 56.2998 248.731V247.368C56.2998 247.306 56.3207 247.253 56.3625 247.207C56.4043 247.162 56.454 247.14 56.5114 247.14H61.9188Z" fill="#FFED00"/>
<path d="M68.5769 247.14C68.6344 247.14 68.684 247.162 68.7258 247.207C68.7676 247.253 68.7885 247.306 68.7885 247.368V248.731C68.7885 248.793 68.7676 248.847 68.7258 248.892C68.684 248.937 68.6344 248.959 68.5769 248.959H66.892V252.836C66.892 252.898 66.8711 252.951 66.8293 252.996C66.7875 253.041 66.7379 253.064 66.6804 253.064H65.0661C65.0086 253.064 64.959 253.041 64.9172 252.996C64.8754 252.951 64.8545 252.898 64.8545 252.836V248.959H63.1696C63.1121 248.959 63.0625 248.937 63.0207 248.892C62.9789 248.847 62.958 248.793 62.958 248.731V247.368C62.958 247.306 62.9789 247.253 63.0207 247.207C63.0625 247.162 63.1121 247.14 63.1696 247.14H68.5769Z" fill="#FFED00"/>
<path d="M75.768 252.768C75.7889 252.802 75.7993 252.838 75.7993 252.878C75.7993 252.929 75.7811 252.974 75.7445 253.013C75.7131 253.047 75.674 253.064 75.6269 253.064H73.6051C73.4849 253.064 73.3909 253.019 73.3229 252.929L72.1161 251.041H71.881V252.836C71.881 252.898 71.8601 252.951 71.8183 252.996C71.7765 253.041 71.7268 253.064 71.6694 253.064H70.055C69.9975 253.064 69.9479 253.041 69.9061 252.996C69.8643 252.951 69.8434 252.898 69.8434 252.836V247.368C69.8434 247.306 69.8643 247.253 69.9061 247.207C69.9479 247.162 69.9975 247.14 70.055 247.14H71.6694C71.7268 247.14 71.7765 247.162 71.8183 247.207C71.8601 247.253 71.881 247.306 71.881 247.368V249.112H72.0534L73.1975 247.284C73.2759 247.188 73.3726 247.14 73.4875 247.14H75.3762C75.4232 247.14 75.4624 247.16 75.4937 247.199C75.5303 247.233 75.5486 247.275 75.5486 247.326C75.5486 247.371 75.5355 247.411 75.5094 247.444L73.6521 249.89L75.768 252.768Z" fill="#FFED00"/>
<path d="M58.4941 261.27C58.4941 261.501 58.5646 261.679 58.7057 261.803C58.852 261.927 59.0479 261.989 59.2935 261.989C59.5129 261.989 59.6749 261.95 59.7793 261.871C59.8838 261.792 59.9726 261.673 60.0458 261.515C60.1137 261.368 60.2051 261.295 60.3201 261.295H62.0128C62.0598 261.295 62.099 261.315 62.1304 261.354C62.1669 261.388 62.1852 261.431 62.1852 261.481C62.1852 261.825 62.0781 262.164 61.8639 262.497C61.6497 262.824 61.3232 263.098 60.8843 263.318C60.4507 263.532 59.9204 263.639 59.2935 263.639C58.7344 263.639 58.2355 263.549 57.7966 263.369C57.363 263.182 57.0182 262.9 56.7622 262.522C56.5062 262.139 56.3782 261.662 56.3782 261.092V260.093C56.3782 259.524 56.5062 259.05 56.7622 258.672C57.0182 258.288 57.363 258.006 57.7966 257.825C58.2355 257.639 58.7344 257.546 59.2935 257.546C59.9204 257.546 60.4507 257.656 60.8843 257.876C61.3232 258.09 61.6497 258.364 61.8639 258.697C62.0781 259.024 62.1852 259.36 62.1852 259.704C62.1852 259.755 62.1669 259.8 62.1304 259.839C62.099 259.873 62.0598 259.89 62.0128 259.89H60.3201C60.2051 259.89 60.1137 259.817 60.0458 259.67C59.9726 259.512 59.8838 259.394 59.7793 259.315C59.6749 259.236 59.5129 259.196 59.2935 259.196C59.0479 259.196 58.852 259.258 58.7057 259.382C58.5646 259.507 58.4941 259.684 58.4941 259.916V261.27Z" fill="#FFED00"/>
<path d="M69.1098 263.259C69.1307 263.292 69.1412 263.329 69.1412 263.369C69.1412 263.419 69.1229 263.465 69.0863 263.504C69.055 263.538 69.0158 263.555 68.9688 263.555H66.9469C66.8267 263.555 66.7327 263.51 66.6648 263.419L65.4579 261.532H65.2228V263.326C65.2228 263.388 65.2019 263.442 65.1601 263.487C65.1183 263.532 65.0687 263.555 65.0112 263.555H63.3969C63.3394 263.555 63.2897 263.532 63.248 263.487C63.2062 263.442 63.1853 263.388 63.1853 263.326V257.859C63.1853 257.797 63.2062 257.743 63.248 257.698C63.2897 257.653 63.3394 257.631 63.3969 257.631H65.0112C65.0687 257.631 65.1183 257.653 65.1601 257.698C65.2019 257.743 65.2228 257.797 65.2228 257.859V259.603H65.3952L66.5394 257.774C66.6177 257.679 66.7144 257.631 66.8293 257.631H68.718C68.765 257.631 68.8042 257.65 68.8355 257.69C68.8721 257.724 68.8904 257.766 68.8904 257.817C68.8904 257.862 68.8773 257.901 68.8512 257.935L66.9939 260.381L69.1098 263.259Z" fill="#FFED00"/>
<path d="M61.9188 278.612C61.9762 278.612 62.0259 278.635 62.0677 278.68C62.1095 278.725 62.1304 278.779 62.1304 278.841V280.203C62.1304 280.265 62.1095 280.319 62.0677 280.364C62.0259 280.409 61.9762 280.432 61.9188 280.432H60.2339V284.308C60.2339 284.37 60.213 284.424 60.1712 284.469C60.1294 284.514 60.0797 284.536 60.0223 284.536H58.4079C58.3504 284.536 58.3008 284.514 58.259 284.469C58.2172 284.424 58.1963 284.37 58.1963 284.308V280.432H56.5114C56.454 280.432 56.4043 280.409 56.3625 280.364C56.3207 280.319 56.2998 280.265 56.2998 280.203V278.841C56.2998 278.779 56.3207 278.725 56.3625 278.68C56.4043 278.635 56.454 278.612 56.5114 278.612H61.9188Z" fill="#FFED00"/>
<path d="M68.7885 282.091C68.7885 282.954 68.5221 283.591 67.9892 284.003C67.4615 284.415 66.7562 284.621 65.8733 284.621C64.9903 284.621 64.2824 284.415 63.7495 284.003C63.2218 283.591 62.958 282.948 62.958 282.074V281.075C62.958 280.499 63.0834 280.023 63.3342 279.645C63.5902 279.261 63.9376 278.979 64.3764 278.798C64.8153 278.618 65.3142 278.528 65.8733 278.528C66.4323 278.528 66.9286 278.618 67.3622 278.798C67.8011 278.979 68.1485 279.258 68.4045 279.636C68.6605 280.014 68.7885 280.488 68.7885 281.058V282.091ZM65.0739 282.251C65.0739 282.483 65.1444 282.66 65.2855 282.784C65.4318 282.909 65.6277 282.971 65.8733 282.971C66.1188 282.971 66.3121 282.909 66.4532 282.784C66.5995 282.655 66.6726 282.474 66.6726 282.243V280.906C66.6726 280.674 66.5995 280.497 66.4532 280.372C66.3121 280.243 66.1188 280.178 65.8733 280.178C65.6277 280.178 65.4318 280.24 65.2855 280.364C65.1444 280.488 65.0739 280.666 65.0739 280.897V282.251Z" fill="#FFED00"/>
<g filter="url(#filter5_d_338_7)">
<path fill-rule="evenodd" clip-rule="evenodd" d="M391.74 244.953L391.032 245.143L391.34 248.948L392.165 250.208H393.865V268.398H390.536L390.819 274.346H393.865V277.233C395.225 279.404 395.313 280.336 399.845 281.087L403.741 281.433L404.449 240.491C403.788 240.202 400.097 238.808 397.264 237.792C394.091 237.607 393.629 239.12 393.794 239.929L394.006 243.336L391.74 243.682V244.953Z" fill="#FFED00"/>
<path d="M387.685 244.689L379.54 243.65C377.77 243.65 376.566 246.71 378.266 247.692C382.742 248.154 388.157 248.809 390.306 249.078L391.34 248.948L391.032 245.143C389.639 245.11 389.42 244.982 387.685 244.689Z" fill="#FFED00"/>
<path d="M387.238 268.969L379.093 267.929C377.323 267.929 376.119 270.99 377.819 271.971C382.295 272.433 387.71 273.088 389.859 273.357L390.893 273.228L390.585 269.422C389.192 269.389 388.973 269.261 387.238 268.969Z" fill="#FFED00"/>
<path d="M397.264 237.792C400.097 238.808 403.788 240.202 404.449 240.491L407.565 240.006L453.246 232.899L456.788 232.348C457.024 232.098 456.773 231.343 453.884 230.327C450.994 229.311 447.864 229.365 446.66 229.519L397.65 236.217C397.461 236.275 397.069 236.471 397.012 236.795C396.956 237.118 397.157 237.594 397.264 237.792Z" fill="#FFED00"/>
<path d="M404.449 240.491L403.741 281.433L456.433 269.191C456.622 269.114 457 268.856 457 268.44C457 268.024 456.858 244.206 456.788 232.348L453.246 232.899C453.53 232.87 454.125 232.891 454.238 233.214C454.247 233.24 454.255 233.42 454.263 233.734C454.279 234.365 454.293 235.535 454.305 237.084C454.313 238.078 454.321 239.228 454.327 240.491C454.333 241.491 454.338 242.562 454.342 243.682C454.347 244.791 454.351 245.947 454.354 247.131C454.358 248.23 454.361 249.352 454.364 250.48C454.366 251.576 454.369 252.679 454.371 253.772C454.373 254.726 454.374 255.672 454.376 256.602C454.378 258.146 454.374 258.062 454.376 259.547C454.376 260.534 454.377 261.5 454.378 262.434C454.378 263.271 454.379 264.081 454.379 264.86C454.379 265.819 454.38 266.728 454.38 267.574C454.403 267.709 454.351 268.024 453.955 268.209C453.558 268.394 422.344 275.293 406.786 278.719C406.668 278.661 406.418 278.43 406.361 277.968C406.353 277.902 406.352 277.347 406.355 276.409C406.359 275.634 406.366 274.597 406.375 273.357C406.383 272.375 406.393 271.264 406.404 270.057C406.414 268.854 406.427 267.555 406.44 266.188C406.452 264.982 406.465 263.724 406.478 262.434C406.49 261.3 406.502 260.14 406.514 258.97C406.526 257.859 406.538 256.739 406.55 255.62C406.563 254.42 406.576 253.222 406.589 252.04C406.601 250.969 406.613 249.912 406.625 248.879C406.639 247.604 406.653 246.365 406.666 245.184C406.681 243.932 406.694 242.745 406.707 241.646C406.71 241.41 406.713 241.179 406.715 240.953C406.644 240.692 406.715 240.138 407.565 240.006L404.449 240.491Z" fill="#FFED00"/>
<path d="M406.355 276.409L454.379 264.86C454.379 264.081 454.378 263.271 454.378 262.434L406.379 273.357L406.355 276.409Z" fill="#FFED00"/>
<path d="M454.376 259.547V256.602L406.44 266.188C406.427 267.555 406.414 268.854 406.404 270.057L406.4 270.461L454.376 259.547Z" fill="#FFED00"/>
<path d="M406.478 262.434L454.371 253.772C454.369 252.679 454.366 251.576 454.364 250.48L406.514 258.97C406.502 260.14 406.49 261.3 406.478 262.434Z" fill="#FFED00"/>
<path d="M406.55 255.62L454.354 247.131C454.351 245.947 454.347 244.791 454.342 243.682L406.589 252.04C406.576 253.222 406.563 254.42 406.55 255.62Z" fill="#FFED00"/>
<path d="M406.625 248.879L454.327 240.491C454.321 239.228 454.313 238.078 454.305 237.084L406.666 245.184C406.653 246.365 406.639 247.604 406.625 248.879Z" fill="#FFED00"/>
<path d="M454.238 233.214C454.125 232.891 453.53 232.87 453.246 232.899L407.565 240.006C406.715 240.138 406.644 240.692 406.715 240.953L406.707 241.646L454.263 233.734C454.255 233.42 454.247 233.24 454.238 233.214Z" fill="#FFED00"/>
<path d="M461.34 232.418C461.483 231.131 460.805 229.891 459.643 229.318C458.321 228.666 456.723 229.042 455.831 230.215L454.219 232.335C455 234.433 455 235.433 455.619 237.447C456.524 237.84 457.434 238.336 458.264 238.956C460.992 240.989 462.425 244.567 462.801 246.102C463.259 247.845 463.611 252.248 461.349 255.921C460.49 257.315 459.524 258.383 458.589 259.185C456.918 260.619 455.821 263.123 456.452 265.233C456.728 266.158 456.859 267.219 456.87 267.995C456.877 268.436 457.01 268.877 457.307 269.203C457.769 269.711 458.517 269.839 459.123 269.515L460.295 268.886C461.485 268.249 462.147 266.934 461.952 265.598L461.668 263.659C461.586 263.106 461.781 262.548 462.189 262.165C462.615 261.765 463.216 261.61 463.782 261.754L465.37 262.159C466.773 262.517 468.244 261.904 468.978 260.657C469.693 259.44 469.543 257.901 468.605 256.846L467.504 255.608C467.103 255.157 466.966 254.531 467.142 253.955C467.309 253.405 467.739 252.975 468.288 252.806L469.82 252.335C471.219 251.905 472.163 250.599 472.132 249.135C472.102 247.709 471.152 246.467 469.784 246.063L468.379 245.649C467.701 245.449 467.178 244.91 466.998 244.227C466.834 243.604 466.978 242.941 467.384 242.441L468.385 241.21C469.266 240.126 469.351 238.599 468.596 237.425C467.814 236.209 466.32 235.661 464.937 236.083L463.768 236.439C463.059 236.655 462.289 236.471 461.754 235.958C461.294 235.517 461.065 234.887 461.136 234.253L461.34 232.418Z" fill="#FFED00"/>
</g>
<g filter="url(#filter6_d_338_7)">
<path d="M78.2543 63.6881C76.0721 65.188 75.7975 65.188 75.5685 64.3547C75.1657 62.8882 75.1416 61.4105 75.3095 60.6884C75.4214 60.1328 75.6116 58.9218 76.8202 59.8551C77.2326 60.1735 77.4917 60.3551 78.2543 61.0217C78.9258 61.23 78.9258 61.0217 79.5972 61.0217V59.1885C79.5972 58.9218 77.4917 55.6888 78.2543 54.6889C79.017 53.6889 84.7243 53.8556 85.3045 54.6889C85.8847 55.5221 83.7937 59.1885 83.7937 59.1885V60.6884C83.7937 62.1882 83.9616 63.3548 83.9616 66.0212C85.3045 66.3545 87.3955 66.6879 88.7383 67.8544C89.4098 68.8543 89.4098 68.6877 89.8367 70.8542C89.9936 71.6501 89.7808 76.1871 89.8367 79.1868C88.8296 80.2978 86.7817 82.7532 86.6474 83.6864C86.5131 84.6197 86.2557 86.8528 86.1438 87.8528L83.7937 90.5192L83.9616 114.184C81.5556 114.739 76.24 115.15 74.2257 112.351V86.6862L71.8756 87.8528V112.351C71.5958 112.962 69.9044 114.684 67.0843 114.684C63.5592 114.684 57.4396 115.184 56.4324 112.351C56.4324 109.351 56.3412 101.685 56.4324 97.8519C54.9776 98.2408 51.7438 100.112 50.9697 105.685C50.2982 110.518 52.3125 112.851 57.4396 116.017C59.398 117.128 68.2691 118.812 73.5542 118.35C81.1846 117.684 87.38 116.558 88.4938 113.517C88.6884 112.986 88.7936 112.741 88.8766 112.516C88.8813 112.275 88.8891 112.042 88.9062 111.821C88.2385 111.71 87.5888 111.684 86.8919 111.684C86.8919 111.684 86.6474 93.019 87.5633 91.6858C88.4793 90.3526 89.8367 90.1859 89.8367 90.1859C89.6129 87.9083 91.0884 83.3531 93.1027 82.0199C96.7901 79.5794 106.699 78.5202 109.05 78.0202C110.93 77.6203 109.029 76.687 111.659 76.5204C112.742 76.5204 113.136 79.3868 111.659 79.5201C109.812 79.6868 97.8735 81.6985 96.2154 82.3532C94.9492 82.8532 92.5225 84.5197 92.1868 87.8528C91.9182 90.5192 92.1868 90.5192 92.1868 90.5192C92.1868 90.5192 94.0668 90.6859 94.2011 92.6857C94.3354 94.6855 93.9213 106.185 93.6975 111.684C93.573 111.688 93.4545 111.691 93.3397 111.692C92.8443 111.708 91.9637 111.741 91.081 111.771C90.8814 113.941 89.4152 117.286 85.0454 118.35C80.2541 119.517 76.3166 120.683 64.5664 119.517C55.1662 118.584 51.3966 114.684 50.0537 111.851C48.9553 108.018 48.3722 105.364 50.0537 101.518C52.3125 96.3521 54.8305 96.1854 56.4324 95.3521V71.5208C56.7122 70.0765 58.5811 66.1212 61.804 65.188C61.804 64.388 61.8806 64.1881 61.804 63.6881H60.6289L58.4468 65.188C58.111 65.1324 57.4396 64.888 57.4396 64.3547V60.6884C57.4396 60.4106 57.641 59.8551 58.4468 59.8551C59.2525 59.8551 60.2373 60.6328 60.6289 61.0217H61.804V59.8551C61.804 59.8551 59.1948 55.5221 59.7896 54.6889C60.3844 53.8556 67.2522 53.8556 67.9236 54.6889C68.595 55.5221 65.8326 59.8551 65.8326 59.8551V65.188C67.5879 65.5213 71.8756 68.3544 71.8756 72.5207V85.0197L74.2257 83.6864V72.1874C74.3935 70.6875 76.0386 67.3545 79.9329 66.0212C79.9329 65.3546 79.821 63.9658 79.9329 63.6881H78.2543Z" fill="#FFED00"/>
<path d="M106.364 65.6879C108.098 68.1877 110.181 72.854 110.316 73.5206C106.735 71.0208 99.942 65.5546 101.419 63.6881C102.896 61.8216 105.323 64.188 106.364 65.6879Z" fill="#FFED00"/>
<path d="M111.659 72.1874C113.002 67.5211 115.347 57.022 113.002 57.022C109.889 57.022 111.211 66.7434 111.659 72.1874Z" fill="#FFED00"/>
</g>
<path d="M345.099 336.493C345.099 337.944 343.935 339.119 342.5 339.119C341.065 339.119 339.901 337.944 339.901 336.493C339.901 335.043 341.065 333.867 342.5 333.867C343.935 333.867 345.099 335.043 345.099 336.493Z" fill="#FFED00"/>
<path fill-rule="evenodd" clip-rule="evenodd" d="M342.5 342.718C345.902 342.718 348.66 339.931 348.66 336.493C348.66 333.055 345.902 330.268 342.5 330.268C339.098 330.268 336.34 333.055 336.34 336.493C336.34 339.931 339.098 342.718 342.5 342.718ZM342.5 341.042C344.964 341.042 346.986 339.019 346.986 336.493C346.986 333.967 344.964 331.944 342.5 331.944C340.036 331.944 338.014 333.967 338.014 336.493C338.014 339.019 340.036 341.042 342.5 341.042Z" fill="#FFED00"/>
<path d="M342.5 365.285C344.36 365.285 345.869 363.761 345.869 361.881C345.869 360 344.36 358.476 342.5 358.476C340.64 358.476 339.131 360 339.131 361.881C339.131 363.761 340.64 365.285 342.5 365.285Z" fill="#FFED00"/>
<path fill-rule="evenodd" clip-rule="evenodd" d="M351.355 361.832C351.355 366.801 347.369 370.829 342.452 370.829C337.535 370.829 333.549 366.801 333.549 361.832C333.549 356.863 337.535 352.834 342.452 352.834C347.369 352.834 351.355 356.863 351.355 361.832ZM348.844 361.832C348.844 365.433 345.962 368.315 342.452 368.315C338.942 368.315 336.06 365.433 336.06 361.832C336.06 358.231 338.942 355.349 342.452 355.349C345.962 355.349 348.844 358.231 348.844 361.832Z" fill="#FFED00"/>
<path fill-rule="evenodd" clip-rule="evenodd" d="M322 326.191C322 323.876 323.873 322 326.184 322H358.816C361.127 322 363 323.876 363 326.191V374.809C363 377.124 361.127 379 358.816 379H326.184C323.873 379 322 377.124 322 374.809V326.191ZM350.199 336.493C350.199 340.791 346.752 344.275 342.5 344.275C338.248 344.275 334.8 340.791 334.8 336.493C334.8 332.196 338.248 328.712 342.5 328.712C346.752 328.712 350.199 332.196 350.199 336.493ZM342.452 373.358C348.697 373.358 353.761 368.241 353.761 361.929C353.761 355.617 348.697 350.5 342.452 350.5C336.206 350.5 331.143 355.617 331.143 361.929C331.143 368.241 336.206 373.358 342.452 373.358Z" fill="#FFED00"/>
<defs>
<filter id="filter0_d_338_7" x="112" y="143" width="100" height="58.1818" filterUnits="userSpaceOnUse" color-interpolation-filters="sRGB">
<feFlood flood-opacity="0" result="BackgroundImageFix"/>
<feColorMatrix in="SourceAlpha" type="matrix" values="0 0 0 0 0 0 0 0 0 0 0 0 0 0 0 0 0 0 127 0" result="hardAlpha"/>
<feOffset dy="4"/>
<feGaussianBlur stdDeviation="2"/>
<feComposite in2="hardAlpha" operator="out"/>
<feColorMatrix type="matrix" values="0 0 0 0 0 0 0 0 0 0 0 0 0 0 0 0 0 0 0.35 0"/>
<feBlend mode="normal" in2="BackgroundImageFix" result="effect1_dropShadow_338_7"/>
<feBlend mode="normal" in="SourceGraphic" in2="effect1_dropShadow_338_7" result="shape"/>
</filter>
<filter id="filter1_d_338_7" x="379" y="48" width="72" height="72" filterUnits="userSpaceOnUse" color-interpolation-filters="sRGB">
<feFlood flood-opacity="0" result="BackgroundImageFix"/>
<feColorMatrix in="SourceAlpha" type="matrix" values="0 0 0 0 0 0 0 0 0 0 0 0 0 0 0 0 0 0 127 0" result="hardAlpha"/>
<feOffset dy="4"/>
<feGaussianBlur stdDeviation="2"/>
<feComposite in2="hardAlpha" operator="out"/>
<feColorMatrix type="matrix" values="0 0 0 0 0 0 0 0 0 0 0 0 0 0 0 0 0 0 0.25 0"/>
<feBlend mode="normal" in2="BackgroundImageFix" result="effect1_dropShadow_338_7"/>
<feBlend mode="normal" in="SourceGraphic" in2="effect1_dropShadow_338_7" result="shape"/>
</filter>
<filter id="filter2_d_338_7" x="202" y="234" width="92" height="78.9999" filterUnits="userSpaceOnUse" color-interpolation-filters="sRGB">
<feFlood flood-opacity="0" result="BackgroundImageFix"/>
<feColorMatrix in="SourceAlpha" type="matrix" values="0 0 0 0 0 0 0 0 0 0 0 0 0 0 0 0 0 0 127 0" result="hardAlpha"/>
<feOffset dy="4"/>
<feGaussianBlur stdDeviation="2"/>
<feComposite in2="hardAlpha" operator="out"/>
<feColorMatrix type="matrix" values="0 0 0 0 0 0 0 0 0 0 0 0 0 0 0 0 0 0 0.25 0"/>
<feBlend mode="normal" in2="BackgroundImageFix" result="effect1_dropShadow_338_7"/>
<feBlend mode="normal" in="SourceGraphic" in2="effect1_dropShadow_338_7" result="shape"/>
</filter>
<filter id="filter3_d_338_7" x="123" y="327" width="78" height="68" filterUnits="userSpaceOnUse" color-interpolation-filters="sRGB">
<feFlood flood-opacity="0" result="BackgroundImageFix"/>
<feColorMatrix in="SourceAlpha" type="matrix" values="0 0 0 0 0 0 0 0 0 0 0 0 0 0 0 0 0 0 127 0" result="hardAlpha"/>
<feOffset dy="4"/>
<feGaussianBlur stdDeviation="2"/>
<feComposite in2="hardAlpha" operator="out"/>
<feColorMatrix type="matrix" values="0 0 0 0 0 0 0 0 0 0 0 0 0 0 0 0 0 0 0.35 0"/>
<feBlend mode="normal" in2="BackgroundImageFix" result="effect1_dropShadow_338_7"/>
<feBlend mode="normal" in="SourceGraphic" in2="effect1_dropShadow_338_7" result="shape"/>
</filter>
<filter id="filter4_d_338_7" x="295" y="136" width="72" height="65" filterUnits="userSpaceOnUse" color-interpolation-filters="sRGB">
<feFlood flood-opacity="0" result="BackgroundImageFix"/>
<feColorMatrix in="SourceAlpha" type="matrix" values="0 0 0 0 0 0 0 0 0 0 0 0 0 0 0 0 0 0 127 0" result="hardAlpha"/>
<feOffset dy="4"/>
<feGaussianBlur stdDeviation="2"/>
<feComposite in2="hardAlpha" operator="out"/>
<feColorMatrix type="matrix" values="0 0 0 0 0 0 0 0 0 0 0 0 0 0 0 0 0 0 0.35 0"/>
<feBlend mode="normal" in2="BackgroundImageFix" result="effect1_dropShadow_338_7"/>
<feBlend mode="normal" in="SourceGraphic" in2="effect1_dropShadow_338_7" result="shape"/>
</filter>
<filter id="filter5_d_338_7" x="373" y="229" width="103.133" height="60.4332" filterUnits="userSpaceOnUse" color-interpolation-filters="sRGB">
<feFlood flood-opacity="0" result="BackgroundImageFix"/>
<feColorMatrix in="SourceAlpha" type="matrix" values="0 0 0 0 0 0 0 0 0 0 0 0 0 0 0 0 0 0 127 0" result="hardAlpha"/>
<feOffset dy="4"/>
<feGaussianBlur stdDeviation="2"/>
<feComposite in2="hardAlpha" operator="out"/>
<feColorMatrix type="matrix" values="0 0 0 0 0 0 0 0 0 0 0 0 0 0 0 0 0 0 0.35 0"/>
<feBlend mode="normal" in2="BackgroundImageFix" result="effect1_dropShadow_338_7"/>
<feBlend mode="normal" in="SourceGraphic" in2="effect1_dropShadow_338_7" result="shape"/>
</filter>
<filter id="filter6_d_338_7" x="45" y="54" width="73" height="74" filterUnits="userSpaceOnUse" color-interpolation-filters="sRGB">
<feFlood flood-opacity="0" result="BackgroundImageFix"/>
<feColorMatrix in="SourceAlpha" type="matrix" values="0 0 0 0 0 0 0 0 0 0 0 0 0 0 0 0 0 0 127 0" result="hardAlpha"/>
<feOffset dy="4"/>
<feGaussianBlur stdDeviation="2"/>
<feComposite in2="hardAlpha" operator="out"/>
<feColorMatrix type="matrix" values="0 0 0 0 0 0 0 0 0 0 0 0 0 0 0 0 0 0 0.35 0"/>
<feBlend mode="normal" in2="BackgroundImageFix" result="effect1_dropShadow_338_7"/>
<feBlend mode="normal" in="SourceGraphic" in2="effect1_dropShadow_338_7" result="shape"/>
</filter>
</defs>
</svg>
