<svg width="94" height="83" viewBox="0 0 94 83" fill="none" xmlns="http://www.w3.org/2000/svg">
<g filter="url(#filter0_d_437_2)">
<path d="M29.2767 56.0003L23.2868 49.2333C22.8048 49.37 21.6137 49.992 20.7049 51.3864C19.5688 53.1294 19.8526 55.3851 20.5369 56.5129C21.2212 57.6407 22.8736 58.666 25.3523 58.666C27.3352 58.666 28.7948 56.8888 29.2767 56.0003Z" fill="#FFED00"/>
<path fill-rule="evenodd" clip-rule="evenodd" d="M15.3345 41.9262C15.0247 41.9262 12.9592 39.0554 12.7526 39.0554C12.5461 39.0554 12.0297 39.9781 11.8231 39.9781C11.6166 39.9781 10.7904 39.6706 10.6871 39.6705C10.5838 39.6705 9.24125 41.2085 9.24125 41.311C9.24125 41.4136 9.24125 42.2338 9.24125 42.3363C9.24125 42.4389 8.72487 43.5667 8.62159 43.5667C8.51832 43.5667 7.48556 43.5667 7.38228 43.5667C7.27901 43.5667 6.19582 45.3097 6.24625 45.4122C6.29668 45.5148 6.55608 46.5401 6.55608 46.6426C6.55608 46.7451 6.0397 48.078 5.93642 48.078C5.83315 48.078 5.21349 48.2831 5.11021 48.2831C5.00694 48.2831 4.38728 50.6412 4.49056 50.7438C4.59384 50.8463 5.00694 51.3589 5.11021 51.4615C5.21349 51.564 5.21349 52.8969 5.11021 52.9994C5.00694 53.102 4.18073 53.4096 4.07746 53.5121C3.97418 53.6146 3.97418 55.7677 4.07746 55.8703C4.18073 55.9728 4.80039 56.3829 4.90366 56.4854C5.00694 56.588 5.21349 58.0234 5.11021 58.1259C5.00694 58.2285 4.59384 58.6386 4.49056 58.7411C4.38728 58.8436 5.00694 61.5094 5.11021 61.5094C5.21349 61.5094 5.83315 61.5094 5.93642 61.5094C6.0397 61.5094 6.65935 62.7398 6.55608 62.8423C6.4528 62.9448 6.14297 63.7651 6.14297 63.8676C6.14297 63.9701 7.17573 65.9182 7.38228 65.9182C7.58884 65.9182 8.31178 65.9182 8.41504 65.9182C8.51831 65.9182 9.55106 67.046 9.55107 67.1485C9.55108 67.2511 9.13798 68.0713 9.13797 68.1738C9.13796 68.2764 10.7904 69.9168 10.8937 69.9168C10.9969 69.9169 11.7199 69.6093 11.8231 69.6093C11.9264 69.6093 13.269 70.4295 13.269 70.532C13.269 70.6346 13.269 71.5573 13.269 71.6599C13.269 71.7624 15.2312 72.6851 15.3345 72.6339C15.4378 72.5826 15.8509 72.3572 15.9542 72.3263C16.0574 72.2954 17.4 72.8902 17.4 72.9927C17.4 73.0953 17.4 73.5054 17.4 73.6079C17.4 73.7105 20.1885 74.5307 20.2918 74.4282C20.395 74.3256 20.6016 74.018 20.7049 73.9155C20.8081 73.813 22.5638 73.813 22.6671 74.018C22.7704 74.2231 23.1835 74.8383 23.2867 74.9408C23.39 75.0433 25.3523 74.9921 25.4555 74.9408C25.5588 74.8895 25.8686 73.9668 25.9719 73.9155C26.0752 73.8643 27.6243 73.6592 27.7276 73.7104C27.8309 73.7617 28.4505 74.3769 28.5538 74.4282C28.6571 74.4794 30.6193 74.0693 30.6193 73.9155C30.6193 73.7617 30.8259 73.044 30.9291 72.9927C31.0324 72.9415 32.4783 72.1212 32.5816 72.07C32.6849 72.0187 33.4077 72.3263 33.511 72.3776C33.6143 72.4288 35.2667 71.8136 35.2667 71.6599C35.2667 71.5061 35.1635 70.5833 35.2667 70.532C35.37 70.4808 36.6093 69.6605 36.7126 69.6093C36.8159 69.558 37.5388 69.8656 37.6421 69.9168C37.7454 69.9681 38.9847 68.6352 38.8814 68.584C38.7781 68.5327 37.0224 64.1239 37.0224 63.8676C37.0224 63.6113 37.9519 62.0221 38.1584 61.9195C38.365 61.817 42.3928 62.3296 42.5993 62.2271C42.8059 62.1246 44.0452 58.331 43.9419 58.1259C43.8386 57.9209 40.6371 55.8703 40.5338 55.6652C40.4305 55.4602 40.4305 53.8197 40.5338 53.6146C40.6371 53.4095 44.2517 51.564 44.355 51.3589C44.4583 51.1539 43.4255 47.2578 43.219 47.0527C43.0124 46.8477 38.9847 47.1552 38.7781 47.0527C38.5715 46.9502 37.6421 45.8223 37.6421 45.6173C37.642 45.4122 39.8109 41.7211 39.8109 41.4136C39.8108 41.106 37.0224 38.4402 36.7126 38.4402C36.4027 38.4402 32.9947 40.7984 32.7881 40.7984C32.5815 40.7984 31.1357 40.1832 31.0324 39.9781C30.9291 39.7731 31.1357 35.7744 31.0324 35.5694C30.9291 35.3643 26.6948 34.5441 26.4883 34.6466C26.2818 34.7491 24.7326 38.5427 24.5261 38.6453C24.3195 38.7478 22.6671 38.7478 22.4605 38.6453C22.254 38.5427 20.0852 35.2618 19.8787 35.1592C19.6721 35.0567 15.7476 36.6972 15.6443 36.9022C15.5411 37.1073 16.3673 40.9009 16.3673 41.106C16.3673 41.311 15.6443 41.9262 15.3345 41.9262ZM16.9869 44.0793C16.9869 44.0793 17.4 43.4642 16.9869 43.054C16.5738 42.6439 16.0574 42.9515 16.0574 42.9515C15.6788 43.1566 13.7854 44.8996 13.7854 44.8996C13.7854 44.8996 12.133 46.5401 10.8937 49.0008C9.44411 51.8789 9.65435 56.2804 9.8609 57.9209C10.0402 59.3452 12.9592 66.5334 18.8459 68.1738C24.7326 69.8143 28.5538 68.584 30.6193 67.7637C32.2717 67.1075 34.2684 65.1663 35.0602 64.2777C35.0602 64.2777 35.4733 63.6625 35.0602 63.2524C34.647 62.8423 34.1307 63.1499 34.1307 63.1499C33.5111 63.8334 31.5901 65.1595 29.6899 66.2258C27.4972 67.4561 24.0916 67.8961 21.4278 67.3536C17.4 66.5334 14.9214 64.3802 12.9592 60.9968C10.9969 57.6133 11.2035 54.6399 12.0297 51.4615C12.6907 48.9187 14.7149 45.6173 16.9869 44.0793ZM14.1985 49.0008C15.5204 46.5401 16.5738 45.8223 18.2262 44.592L19.0524 44.0793L20.0852 43.5667C23.4589 42.5072 31.0531 41.9672 34.4405 48.2831C38.6748 56.1779 34.0274 60.7917 33.511 61.5094C32.9947 62.2271 31.7554 64.5853 26.5916 65.9182C22.4605 66.9845 18.7426 65.2688 17.4 64.2777C16.1263 63.1841 13.4549 60.3816 12.9592 57.9209C12.3395 54.845 12.5461 52.0767 14.1985 49.0008Z" fill="#FFED00"/>
<path d="M26.1785 63.56C25.7654 63.1499 25.7654 62.5347 26.1785 61.6119C26.5916 60.6892 27.4178 59.8305 28.3473 59.2538C29.2767 58.677 30.6193 58.1259 31.0324 58.2285C31.3629 58.3105 32.4783 59.5613 32.9947 60.1765C32.8914 60.4841 31.9364 61.5906 31.0324 62.3296C30.1285 63.0687 28.9669 63.4575 28.244 63.6625C27.521 63.8676 26.5916 63.9701 26.1785 63.56Z" fill="#FFED00"/>
<path d="M15.6527 58.666C15.7973 57.9483 18.7303 58.2354 19.887 58.9736C21.3329 59.8964 22.4422 61.1702 22.882 62.2546C23.2867 63.2524 23.6231 64.2283 23.1918 64.3052C22.7704 64.3802 20.8346 64.2529 18.751 62.7672C16.9869 61.5094 16.4706 60.8942 16.264 60.5866C16.0574 60.2791 15.5494 59.1787 15.6527 58.666Z" fill="#FFED00"/>
<path d="M14.7681 53.6101C14.246 53.3178 14.0728 52.7085 14.2199 51.6806C14.3669 50.6527 14.9388 49.5744 15.6916 48.7468C16.4445 47.9193 17.6112 47.0033 18.0468 46.9909C18.3953 46.9811 19.8455 47.9125 20.5271 48.3795C20.5119 48.7126 19.883 50.0719 19.201 51.0531C18.519 52.0344 17.4847 52.7397 16.8306 53.1422C16.1766 53.5446 15.2903 53.9024 14.7681 53.6101Z" fill="#FFED00"/>
</g>
<g filter="url(#filter1_d_437_2)">
<path fill-rule="evenodd" clip-rule="evenodd" d="M5.29286 32.3339L5.80973 31.7017C5.9665 31.5967 6.06983 31.4907 6.17971 31.3779C6.24835 31.3075 6.31954 31.2345 6.4079 31.1574C6.95339 30.6816 7.75068 30.0266 8.34554 29.6587C8.44034 29.6001 8.53407 29.5368 8.62865 29.473C8.76252 29.3827 8.89809 29.2912 9.04078 29.2102C9.12011 29.1653 9.17709 29.1248 9.23148 29.0861C9.27947 29.052 9.32545 29.0193 9.38301 28.9862C10.5863 28.2931 11.1597 28.0696 11.4249 27.6509C11.7607 27.1208 11.6026 26.2779 11.6036 23.7736C11.6038 23.3155 11.602 22.856 11.6002 22.3959C11.5961 21.3293 11.5919 20.2599 11.6131 19.1997C11.6792 15.8826 11.6682 12.5298 11.6571 9.1891C11.653 7.96272 11.649 6.73797 11.6488 5.51723C11.6487 5.21633 11.6455 4.93944 11.6425 4.68278C11.6186 2.61792 11.6098 1.86201 13.3885 0.441879C13.7819 0.127909 14.3816 0.127748 15.0059 0.127581C15.1157 0.127551 15.2262 0.127521 15.3365 0.125784C15.7004 0.120175 16.0404 0.101309 16.3768 0.0826415C16.7619 0.0612728 17.1423 0.0401646 17.5484 0.0395003L38.1294 0.0208328C38.2539 0.0204008 38.4595 0.017882 38.7163 0.014736C39.939 -0.000243873 42.3224 -0.0294434 42.6443 0.0847171C42.766 0.127787 42.8807 0.155491 42.9956 0.183272C43.3323 0.264658 43.6718 0.346706 44.2003 0.817708C44.431 1.02346 44.8118 1.48847 44.9441 1.79088C44.9547 1.81497 44.9654 1.84182 44.9765 1.86982C45.0222 1.98453 45.0755 2.11848 45.1602 2.16049C45.1573 2.25756 45.4672 3.16229 45.5207 3.30664L46.1977 5.76156C46.2078 5.80057 46.2168 5.83671 46.2253 5.87101C46.2495 5.96838 46.27 6.05095 46.3035 6.14237C46.3331 6.22415 46.3424 6.28468 46.3501 6.33467C46.3627 6.41629 46.371 6.46981 46.4561 6.54184C46.4354 6.70276 46.4698 6.81934 46.5063 6.94305C46.5151 6.97306 46.5241 7.00349 46.5325 7.03507C46.5459 7.08579 46.5596 7.13198 46.573 7.17742C46.6011 7.27208 46.6281 7.3635 46.6503 7.48598C46.6948 7.61334 46.7507 7.82325 46.8106 8.04787C46.9108 8.4239 47.0221 8.84118 47.1091 8.98142L47.1107 8.98418C47.1156 8.99238 47.1223 9.00358 47.129 9.01211C47.0831 9.12783 47.2235 9.62343 47.3397 10.0334C47.4021 10.2539 47.4576 10.4497 47.4733 10.5482L48.1295 13.1707C48.146 13.2046 48.149 13.218 48.1475 13.2223C48.1381 13.2158 48.1374 13.2177 48.1395 13.2202C48.1415 13.2228 48.1462 13.226 48.1475 13.2223C48.1552 13.2275 48.1687 13.2383 48.1913 13.2587C48.171 13.3819 48.273 13.8083 48.3054 13.8759L48.9886 16.6552C49.0351 16.7914 49.0948 17.0574 49.1578 17.3383C49.2517 17.7566 49.353 18.2079 49.4292 18.3128L49.4097 18.3232L50.2696 21.8115C50.2832 21.8616 50.2914 21.915 50.2996 21.9679C50.3206 22.1039 50.3412 22.2367 50.4504 22.3018L50.4276 22.4013C50.4615 22.6315 50.5548 22.963 50.649 23.2975C50.723 23.5605 50.7976 23.8253 50.8441 24.044C50.9652 24.614 51.0876 25.1657 51.2465 25.71C51.3628 26.1094 51.4702 26.5759 51.5778 27.0431C51.6666 27.4288 51.7555 27.815 51.8496 28.1645C51.8649 28.2212 51.8771 28.2747 51.8891 28.3274C51.9063 28.4034 51.9231 28.4775 51.9484 28.5569C51.9742 28.638 51.985 28.7001 51.9939 28.7512C52.0096 28.8414 52.0193 28.897 52.0948 28.9613L52.1064 29.1646C52.2893 30.5132 52.6586 30.5093 53.6081 30.4994L53.6417 30.4991L61.722 30.5024C62.0355 30.5121 62.0464 30.4885 62.0677 30.4425C62.0729 30.4314 62.0787 30.4189 62.0895 30.4053C62.2185 30.4912 62.4712 30.3726 62.4459 30.2241C62.601 30.1813 62.5827 29.7537 62.5684 29.4199C62.5647 29.3324 62.5612 29.2513 62.5612 29.1854L62.5475 25.7552C62.5381 24.9862 62.5439 24.2151 62.5497 23.4442C62.5554 22.6893 62.5611 21.9345 62.5525 21.1818C62.5479 20.77 62.5683 20.3764 62.5885 19.9897C62.6063 19.6475 62.6238 19.3108 62.6234 18.9716C62.6226 17.6823 62.6487 15.8505 62.8408 14.6068C62.9146 14.1294 63.0088 13.6382 63.1415 13.1935C63.1585 13.1363 63.1782 13.0852 63.1978 13.0343C63.2336 12.9413 63.2692 12.8488 63.288 12.7206C63.311 12.6224 63.3826 12.4646 63.4559 12.3033C63.5463 12.104 63.6391 11.8996 63.6455 11.796C63.724 11.7325 63.7942 11.5942 63.8776 11.4297C63.9489 11.289 64.03 11.1293 64.1342 10.9809C64.1867 10.9062 64.2381 10.8321 64.2891 10.7587C64.5958 10.3168 64.8858 9.89891 65.3028 9.51612L66.3834 8.61513C67.1143 8.07503 68.4065 7.51211 69.3344 7.29558C69.4935 7.25832 69.5282 7.26062 69.553 7.24607C69.5671 7.23778 69.578 7.22402 69.607 7.19436L69.8019 7.16657L72.2013 6.8177C73.0978 6.76669 73.0773 7.21415 73.0393 8.0442C73.03 8.24684 73.0197 8.47228 73.0214 8.71883C73.0219 8.80204 73.0256 8.9028 73.0297 9.0125C73.0463 9.4639 73.0684 10.0664 72.9002 10.2176L72.772 10.3342L72.7745 10.3113C71.9719 10.3549 71.3322 10.8631 70.9887 11.3181C70.7622 11.618 70.637 11.7964 70.4549 12.1511C70.3428 12.3689 70.0629 12.928 70.0844 13.1637L69.9886 13.3234C69.8969 13.6237 69.7501 14.6632 69.7405 14.9677L69.6854 18.2087C69.6779 18.669 69.6605 19.1233 69.643 19.5814C69.6198 20.1897 69.5963 20.8046 69.5953 21.4485L69.5597 24.6883C69.5595 24.8732 69.5512 25.0521 69.5431 25.2269C69.5348 25.4065 69.5267 25.5818 69.5277 25.7548C69.5315 26.4786 69.5315 27.2037 69.5298 27.9276C69.5295 28.0863 69.5224 28.2775 69.5147 28.4823C69.4936 29.0502 69.4686 29.7219 69.5738 30.0892C69.7009 30.532 70.0334 30.5241 70.56 30.5117C70.7794 30.5065 71.0325 30.5006 71.3185 30.5261C72.3214 30.6156 73.7254 30.6097 75.0931 30.6039C76.0686 30.5998 77.0256 30.5957 77.8055 30.6264C78.149 30.6401 86.311 30.6961 86.5823 30.6269C86.5943 30.6587 86.5948 30.6688 86.5993 30.6711C86.6056 30.6744 86.6201 30.6621 86.6873 30.6746C86.7132 30.6792 86.8136 30.6795 86.9462 30.68C87.1926 30.6808 87.5504 30.682 87.7484 30.7119C88.8302 30.8753 89.5077 31.6967 89.5143 32.8445C89.518 33.4659 88.9044 35.2122 88.5402 36.2486C88.4529 36.4971 88.38 36.7047 88.3333 36.8463C88.3177 36.8969 88.2921 36.9691 88.2635 37.0496C88.1883 37.2616 88.0924 37.5317 88.1047 37.6216C88.0964 37.6316 88.0873 37.6353 88.0836 37.6548C88.0803 37.6739 88.0686 37.6784 88.0641 37.6871C88.0613 37.6922 88.0573 37.6991 88.0534 37.706C88.051 37.7103 88.0486 37.7145 88.0467 37.7183L86.7595 41.2293C86.7064 41.3031 86.5765 41.6549 86.5844 41.7578C86.5769 41.7652 86.5704 41.7709 86.5643 41.7761C86.5508 41.7879 86.5394 41.7979 86.523 41.8217C86.4952 41.8616 86.492 41.8633 86.4921 41.8634C86.4923 41.8635 86.496 41.8618 86.4811 41.8968L86.2803 42.4696C86.1741 42.7247 86.0945 42.9317 85.992 43.1993C85.9722 43.2512 85.9411 43.3307 85.9035 43.4268C85.7447 43.8326 85.4702 44.5341 85.4403 44.6947C85.428 44.7202 85.4155 44.7447 85.4026 44.7698C85.3777 44.8184 85.3515 44.8695 85.3233 44.9349C85.2973 44.9958 85.284 45.0414 85.2699 45.0894C85.26 45.1231 85.2498 45.1581 85.2346 45.2004C85.2161 45.2519 85.1901 45.3022 85.1638 45.3531C85.1064 45.4643 85.0474 45.5787 85.0608 45.7152C84.9792 45.7782 84.8252 46.1789 84.6287 46.6905C84.3396 47.4429 83.9584 48.4351 83.5798 48.945C82.7321 50.0861 81.7987 50.5093 81.2755 50.7466C81.0944 50.8287 80.9624 50.8886 80.9001 50.9482C80.914 51.0727 81.0762 51.1974 81.2228 51.3101C81.2593 51.3383 81.2949 51.3656 81.3269 51.392C81.9164 51.8795 83.0128 53.1575 83.4612 53.8308C83.5257 53.9275 83.5893 54.0199 83.655 54.1153C83.7119 54.198 83.7705 54.283 83.8325 54.375C83.8989 54.4735 83.9516 54.569 83.9987 54.6544C84.0674 54.779 84.1241 54.8817 84.1938 54.9396C84.2091 55.0047 84.6534 55.9086 84.7189 55.9414C84.7596 56.0978 84.9741 56.7196 85.0981 56.8615C85.0875 56.9789 85.1009 57.0025 85.1224 57.0407C85.1362 57.0652 85.1535 57.0957 85.1699 57.161L85.5349 58.459C85.54 58.4818 85.541 58.4928 85.5416 58.5001C85.5428 58.513 85.5429 58.5146 85.5631 58.5515C85.5931 58.6069 85.5955 58.6157 85.6008 58.6181C85.6058 58.6204 85.6135 58.6169 85.6498 58.6415C85.6211 58.7334 85.6712 59.0432 85.7242 59.3709C85.7717 59.6642 85.8214 59.9717 85.8191 60.1502C85.8259 60.2988 85.8366 60.4411 85.8474 60.5841C85.8649 60.8159 85.8825 61.0495 85.8838 61.315C85.885 61.5557 85.8649 61.7749 85.8448 61.9944C85.8299 62.1581 85.8149 62.322 85.8087 62.4952C85.7925 62.9353 85.6585 63.6783 85.5523 64.1055C85.5373 64.1658 85.5224 64.2165 85.5084 64.2643C85.4741 64.3812 85.445 64.4805 85.4312 64.6593C85.3918 64.7103 85.1699 65.4106 85.1802 65.5159C85.0836 65.6048 85.0687 65.6557 85.0427 65.7436C85.0323 65.7792 85.02 65.8208 84.9998 65.8735C84.841 66.2859 84.7888 66.3971 84.6947 66.5979C84.6471 66.6993 84.5888 66.8235 84.5007 67.0209C84.3998 67.2475 84.2606 67.4744 84.1422 67.6673C84.1297 67.6877 84.1174 67.7077 84.1054 67.7273C84.0578 67.8054 84.0267 67.86 83.9939 67.9173C83.9691 67.9608 83.9434 68.006 83.9088 68.0642L83.7474 68.3284C83.7293 68.3753 83.7232 68.3793 83.7215 68.3784C83.7212 68.3771 83.721 68.3772 83.721 68.3776C83.7211 68.3779 83.7212 68.3782 83.7215 68.3784C83.7224 68.3821 83.7239 68.3975 83.7205 68.452C83.6104 68.4778 83.5455 68.5875 83.4821 68.6947C83.4566 68.7378 83.4314 68.7804 83.4035 68.8171L81.0863 71.323C81.009 71.3423 81.0103 71.3433 81.0189 71.3495C81.024 71.3532 81.0317 71.3588 81.027 71.3711C80.954 71.4001 80.7592 71.5493 80.5545 71.706C80.3696 71.8476 80.1767 71.9953 80.058 72.0664C79.9869 72.109 79.9172 72.1509 79.8484 72.1922C78.8154 72.8132 78.0196 73.2916 76.6921 73.6813C74.73 74.2579 72.8687 74.413 70.7166 74.0555C70.5241 74.0455 69.8115 73.892 69.5999 73.8257C69.4576 73.7808 68.6209 73.5278 68.5811 73.5274C68.517 73.4742 68.3927 73.4321 68.2856 73.3958C68.2415 73.3808 68.2003 73.3669 68.1675 73.3536L66.8874 72.7778L66.7219 72.6675C66.7153 72.6641 66.7091 72.6609 66.7033 72.658C66.6159 72.6131 66.6148 72.6125 66.5335 72.6098C66.4422 72.4986 66.2894 72.4171 66.1471 72.3412C66.0729 72.3016 66.0015 72.2636 65.9432 72.2236C65.9 72.1941 65.8467 72.1547 65.7892 72.1123C65.6384 72.001 65.4585 71.8683 65.3559 71.8341C65.3093 71.7743 65.2893 71.7611 65.2513 71.7359C65.2342 71.7246 65.2134 71.7109 65.1849 71.6893C65.1493 71.6623 65.1232 71.6395 65.0965 71.6161C65.0681 71.5914 65.0391 71.566 64.997 71.5342C64.9805 71.5216 64.9604 71.5054 64.9379 71.4873C64.8329 71.4031 64.6762 71.2774 64.5959 71.2757C64.5192 71.1173 64.1479 70.8095 64.0201 70.7431C63.9867 70.6784 63.9791 70.6714 63.944 70.6391C63.9302 70.6265 63.9123 70.61 63.887 70.5846C63.8678 70.5656 63.8535 70.5504 63.8415 70.5376C63.8055 70.4995 63.7904 70.4834 63.7273 70.4511C63.6656 70.3376 63.5068 70.1773 63.3687 70.0379C63.3201 69.9889 63.274 69.9424 63.2357 69.9014C63.1886 69.851 63.1324 69.7809 63.0726 69.7063C62.9524 69.5565 62.8177 69.3885 62.713 69.3257C62.6869 69.2278 62.2468 68.6059 62.165 68.5483L61.846 68.0078C61.8149 67.9584 61.794 67.9285 61.7752 67.9016C61.7481 67.8628 61.7252 67.8301 61.6822 67.7543C61.6536 67.7041 61.6225 67.6502 61.5996 67.617L61.4802 67.4743C61.4756 67.3714 61.3968 67.2009 61.3358 67.1346C61.2887 66.9919 61.2049 66.8204 61.1182 66.6429C61.0589 66.5216 60.9983 66.3975 60.9471 66.278C60.7389 65.7926 60.2486 64.2893 60.1494 63.7052C60.1076 63.4585 60.0959 63.4547 60.0717 63.447C60.0628 63.4441 60.0522 63.4407 60.0378 63.4244C60.0722 63.3334 60.0646 63.2351 60.0563 63.1284C60.0529 63.0843 60.0493 63.0388 60.0486 62.9917C60.0386 62.9028 60.0234 62.8394 60.0084 62.7771C59.986 62.684 59.9641 62.5932 59.9611 62.4222C59.9593 62.3143 59.9555 62.2074 59.9516 62.1005C59.9473 61.9791 59.9429 61.8576 59.9416 61.7344C59.9389 61.4958 59.9431 61.257 59.9472 61.0184C59.9508 60.8135 59.9544 60.6088 59.9536 60.4045C59.9535 60.3676 59.9547 60.3366 59.9557 60.3089C59.9588 60.2253 59.9608 60.1717 59.9238 60.0776L59.9557 60.0108C59.9653 59.9816 59.9687 59.9724 59.9715 59.9629C59.9744 59.9528 59.9766 59.9424 59.9847 59.9067C60.0186 59.7583 60.0492 59.5353 60.0791 59.3175C60.1137 59.0653 60.1473 58.8202 60.1838 58.7066C60.2318 58.5582 60.2651 58.4043 60.2996 58.2446C60.3125 58.1847 60.3257 58.124 60.3398 58.0624C60.3611 57.9703 60.3889 57.881 60.4163 57.7928C60.4583 57.6576 60.4995 57.5251 60.5153 57.3895C60.5723 57.2847 60.6177 57.1441 60.658 57.0193C60.6687 56.9861 60.679 56.9541 60.6891 56.9241C60.7134 56.8522 60.7407 56.7869 60.7666 56.725C60.8055 56.6322 60.8413 56.5468 60.8592 56.457C60.9226 56.3905 61.0449 56.0974 61.1434 55.8611C61.1905 55.7481 61.2322 55.6481 61.2595 55.5921L62.1845 53.9677C62.2141 53.9262 62.254 53.8722 62.2988 53.8114C62.4543 53.601 62.6693 53.3099 62.7192 53.1783C62.7393 53.1662 62.7401 53.1763 62.7406 53.1825C62.7413 53.1909 62.7414 53.192 62.7885 53.1198C62.8109 53.0853 62.818 53.0846 62.8193 53.0815C62.8208 53.0783 62.8159 53.0723 62.8155 53.0223C62.9069 52.9704 62.9522 52.9084 63.0051 52.8361C63.0199 52.8159 63.0352 52.7948 63.0523 52.773C63.0903 52.7248 63.1266 52.6844 63.1656 52.641C63.1961 52.607 63.2283 52.5712 63.2643 52.5282L64.1338 51.5675C64.1721 51.5234 64.2285 51.4702 64.2876 51.4146C64.4113 51.2979 64.5466 51.1705 64.5511 51.093C64.2769 51.0501 59.2016 51.0747 57.5316 51.0828C57.2762 51.0841 57.1004 51.0849 57.0337 51.0851C56.9309 51.0853 56.8034 51.0792 56.6642 51.0726C56.1735 51.0492 55.5384 51.019 55.3387 51.2319C55.2157 51.363 55.2244 52.2033 55.233 53.0287C55.2386 53.567 55.2441 54.099 55.213 54.424C55.2038 54.5189 55.1904 54.5753 55.1777 54.6289C55.1642 54.6859 55.1514 54.7398 55.145 54.8338C55.1033 55.4459 54.9165 55.8349 54.6865 56.3139L54.6825 56.3222C54.6791 56.3276 54.6339 56.4002 54.6331 56.4023C54.6136 56.4455 54.609 56.4497 54.6081 56.4546C54.6073 56.459 54.6095 56.4639 54.6066 56.4973C54.5084 56.5368 54.4589 56.5999 54.3996 56.6756C54.3854 56.6936 54.3708 56.7124 54.3548 56.7316C54.1942 56.9254 54.0374 57.037 53.8217 57.1896C53.7792 57.2193 53.7616 57.2304 53.7359 57.2466C53.7224 57.2551 53.7067 57.2649 53.684 57.2796C53.6204 57.3207 53.6028 57.3268 53.5897 57.3381C53.5766 57.3494 53.568 57.3658 53.5226 57.4273C53.4326 57.4285 53.2558 57.5211 53.1765 57.5626L53.1671 57.5675C53.078 57.5926 52.9921 57.6204 52.9061 57.6482C52.6484 57.7316 52.3901 57.8152 52.0417 57.8276C51.8646 57.8338 51.5236 57.843 51.3597 57.8118C51.3083 57.802 51.2526 57.7876 51.1944 57.7726C51.0571 57.7372 50.9064 57.6983 50.7674 57.7073L50.6209 57.6243C49.6233 57.2124 49.1649 56.7748 48.741 55.7705L48.6331 55.6004C48.6539 55.4438 48.6438 55.4267 48.6123 55.373C48.601 55.3538 48.5869 55.3298 48.5705 55.293C48.5659 55.1678 48.5471 55.0658 48.5252 54.9466C48.499 54.8045 48.4683 54.6378 48.4518 54.3779C48.4365 54.1344 48.3726 53.742 48.332 53.5247C48.3062 53.3857 48.3039 53.2384 48.3015 53.0916C48.2988 52.9189 48.296 52.7472 48.2552 52.5913C48.2113 52.4227 48.168 52.1057 48.1363 51.8736C48.13 51.827 48.1241 51.7838 48.1187 51.7459L48.1049 51.6481C48.0267 51.0936 47.9517 50.562 47.8404 50.053L47.5786 48.8293C47.5599 48.7531 47.5554 48.6957 47.5517 48.6485C47.5447 48.5599 47.5405 48.5068 47.4505 48.431C47.472 48.2419 47.3505 47.8101 47.2638 47.6802C47.2342 47.4645 47.1503 47.2294 47.0729 47.0121C47.0582 46.9708 47.0437 46.9302 47.0298 46.8904C46.999 46.8019 46.969 46.7114 46.9394 46.6219C46.8805 46.4441 46.823 46.2702 46.7623 46.1234L46.2006 44.8213C46.1553 44.7507 46.1543 44.7503 46.1478 44.7481C46.1441 44.7468 46.1386 44.7449 46.1218 44.7288C46.1324 44.5977 46.0312 44.418 45.9501 44.2739C45.9232 44.226 45.8985 44.182 45.8808 44.1451C45.8488 44.0781 45.8135 44.0206 45.7796 43.9654C45.7628 43.9382 45.7465 43.9116 45.731 43.8846C45.6998 43.8299 45.6877 43.7962 45.6771 43.7667C45.6629 43.7272 45.6514 43.6951 45.6003 43.6303C45.5732 43.506 45.4882 43.3657 45.4032 43.2254C45.3674 43.1663 45.3315 43.1071 45.3 43.0491L45.2906 43.0319C45.192 42.8505 44.8481 42.2178 44.7114 42.1577C44.7051 42.1048 44.7113 42.0969 44.7115 42.0888C44.7118 42.0792 44.7035 42.0694 44.6554 41.9822C44.636 41.9468 44.6172 41.9221 44.5964 41.8946C44.581 41.8744 44.5645 41.8527 44.5459 41.8242L43.515 40.3827C42.6597 39.2257 40.7067 37.2064 39.4871 36.3236C39.3072 36.1934 39.1371 36.0643 38.9691 35.9367C38.5719 35.6351 38.1858 35.342 37.7063 35.0621C37.6066 35.0039 37.5194 34.9462 37.4335 34.8894C37.3257 34.8181 37.22 34.7482 37.0948 34.6805C37.0545 34.6589 36.9993 34.6265 36.9366 34.5897C36.7578 34.485 36.5189 34.345 36.3954 34.318C36.3195 34.2416 35.7193 33.9098 35.5467 33.8861C35.3563 33.6932 34.0475 33.1664 33.8235 33.0764C33.5286 32.9577 32.1924 32.4376 31.9353 32.4425C31.9247 32.4178 31.9198 32.4044 31.9105 32.3955C31.8944 32.3801 31.865 32.3785 31.7689 32.3542C31.7022 32.3372 31.6685 32.3268 31.6292 32.3146C31.6089 32.3083 31.5872 32.3015 31.5586 32.2932L30.2905 31.9829C29.7507 31.8634 29.2314 31.7736 28.6723 31.677C28.6298 31.6696 28.5871 31.6622 28.5441 31.6548C28.4554 31.6394 28.3668 31.634 28.2809 31.6287C28.202 31.6239 28.1254 31.6192 28.0529 31.6071C27.6497 31.5407 27.497 31.5379 27.3637 31.5355C27.2795 31.534 27.203 31.5326 27.076 31.5154C27.0144 31.5071 26.9744 31.4976 26.9368 31.4888C26.8711 31.4732 26.8127 31.4594 26.6591 31.4565C24.9447 31.4221 24.3013 31.4163 22.5818 31.561C21.8223 31.6253 19.8988 31.9655 19.0708 32.2281C19.0368 32.2388 19.0037 32.2494 18.9711 32.2597C18.7337 32.3353 18.5283 32.4007 18.2751 32.4587C18.2592 32.4624 18.2421 32.4662 18.2242 32.4703C17.9993 32.521 17.6361 32.603 17.5032 32.7682C17.382 32.7259 17.1837 32.8325 17.141 32.8586C16.5964 33.0038 15.7787 33.3941 15.2727 33.648L12.9986 34.8875C12.946 34.9238 12.8888 34.9563 12.8314 34.989C12.6924 35.0682 12.5519 35.1483 12.4705 35.2837C12.3507 35.2773 11.997 35.5366 11.7756 35.6989C11.7364 35.7276 11.7013 35.7533 11.6724 35.774C11.6538 35.7873 11.6351 35.7998 11.6171 35.8119C11.5469 35.8588 11.4872 35.8986 11.4882 35.9511C11.2754 36.0059 10.8121 36.3634 10.6968 36.5032C10.5802 36.5605 10.4416 36.6513 10.3703 36.7339C10.2386 36.7806 10.1093 36.8566 9.9636 36.9422C9.55593 37.1816 9.01947 37.4967 7.94233 37.4606C7.50262 37.4457 6.78124 37.23 6.43901 37.0193C6.19053 36.8664 6.09579 36.7826 6.01563 36.7117C5.97656 36.6771 5.94095 36.6456 5.89269 36.6107C5.85021 36.5799 5.84379 36.5691 5.83435 36.5643C5.82498 36.5595 5.81263 36.5605 5.75912 36.5534C5.74732 36.4562 5.72621 36.4342 5.67336 36.3791C5.65746 36.3625 5.63868 36.3429 5.61642 36.3174C5.56642 36.2605 5.53496 36.215 5.4987 36.1625C5.48894 36.1484 5.47883 36.1338 5.46791 36.1183C4.83572 35.2169 4.61338 33.8758 5.07134 32.8354C5.1015 32.767 5.13089 32.7039 5.15878 32.644C5.20993 32.5342 5.25608 32.435 5.29286 32.3339ZM66.926 56.1554L66.9882 56.0882C67.0887 56.0258 67.2145 55.8982 67.3589 55.7518C67.4834 55.6256 67.6216 55.4854 67.7693 55.361C67.8396 55.3017 67.9026 55.2477 67.9616 55.1972C68.1717 55.017 68.331 54.8805 68.5869 54.7043C69.0922 54.3563 70.4416 53.625 71.031 53.5495C71.2225 53.5248 71.3714 53.5018 71.5398 53.4759C71.5863 53.4688 71.6344 53.4614 71.6852 53.4536C72.1025 53.3902 74.6118 53.4507 75.0951 53.6237C75.2415 53.676 75.4974 53.7353 75.6663 53.773C75.7089 53.7863 75.811 53.8243 75.9317 53.8692C76.1667 53.9567 76.4723 54.0704 76.5482 54.0792L76.7821 54.2347C76.8106 54.2493 76.8488 54.2682 76.8893 54.2881C76.9374 54.3119 76.9887 54.3372 77.0306 54.3588C77.1275 54.4092 77.2026 54.4551 77.281 54.5031C77.3357 54.5365 77.3919 54.5709 77.4583 54.6085C77.9615 54.8931 78.6443 55.4697 79.0313 55.8758C79.1238 55.9729 79.2177 56.0887 79.3086 56.2007C79.4636 56.3918 79.6097 56.572 79.7245 56.6295C79.7367 56.7557 79.8919 56.9684 80.0267 57.1532C80.0833 57.2309 80.1364 57.3036 80.1737 57.3629C80.3038 57.5696 80.4511 57.8528 80.5754 58.0916L80.6018 58.1424C80.8046 58.5309 80.9609 59.0215 81.1054 59.4754C81.151 59.6186 81.1955 59.7581 81.2398 59.8896C81.2647 60.0433 81.294 60.1926 81.3232 60.3418C81.3928 60.6974 81.4622 61.0517 81.4713 61.4597C81.4788 61.7721 81.4763 62.0417 81.4676 62.3541C81.4612 62.588 81.4343 62.725 81.4081 62.858C81.3883 62.9587 81.3689 63.0571 81.3593 63.1937L81.3958 63.2364L81.3369 63.3559C81.2777 63.4965 81.2555 63.6069 81.2333 63.7173C81.2185 63.7908 81.2037 63.8643 81.178 63.9466L81.1699 63.9724C81.1128 64.1545 81.0226 64.4417 80.9499 64.609C80.2906 66.1275 79.5413 66.981 79.1216 67.4592C78.9553 67.6486 78.8407 67.7791 78.804 67.8687L78.7932 67.8301C78.6667 67.9123 78.5053 68.0579 78.4091 68.1516L77.3251 68.9676C77.2826 68.9937 77.2418 69.019 77.2021 69.0436C76.9784 69.1822 76.7885 69.2998 76.5229 69.4235C76.4038 69.479 76.2896 69.5335 76.177 69.5873C76.0087 69.6676 75.844 69.7462 75.6725 69.8238C74.9183 70.1639 73.2391 70.363 72.312 70.2282C72.1545 70.2052 71.9877 70.1725 71.821 70.1399C71.6037 70.0973 71.3866 70.0548 71.1903 70.0337C71.0954 70.0004 70.9757 69.9689 70.8602 69.9385C70.7859 69.9189 70.7134 69.8998 70.6502 69.881C70.5489 69.8508 70.5139 69.837 70.4674 69.8188C70.4424 69.809 70.4142 69.7979 70.3706 69.7823C70.2279 69.7309 70.2047 69.7288 70.1122 69.7234C70.1023 69.7122 70.0877 69.6989 70.0794 69.6923L69.1942 69.2497C69.0963 69.1661 68.887 69.0321 68.654 68.8827C68.2228 68.6064 67.7101 68.2779 67.6706 68.1209C67.4897 68.0131 67.3362 67.8625 67.1935 67.7181C67.1406 67.6646 67.1011 67.6153 67.0646 67.57C66.9842 67.4699 66.9189 67.3886 66.7588 67.3216C66.739 67.2261 66.5555 67.0002 66.4114 66.8229C66.3533 66.7514 66.3017 66.6877 66.2697 66.6437C66.2374 66.5991 66.1958 66.5305 66.1495 66.4543C66.0359 66.267 65.8945 66.0341 65.7972 66.0008C65.7596 65.8238 65.7504 65.8086 65.7009 65.727C65.6909 65.7104 65.6792 65.6912 65.6653 65.6673C65.6004 65.5556 65.5996 65.5277 65.5874 65.5064C65.5761 65.4866 65.555 65.4724 65.4645 65.4026C65.4443 65.3158 65.4442 65.3164 65.4433 65.3246C65.4423 65.3339 65.4403 65.3531 65.4052 65.2603C65.3956 65.2348 65.3873 65.2107 65.3789 65.1862C65.37 65.1602 65.361 65.1339 65.35 65.1052L65.002 64.2444C64.9808 64.0615 64.8697 63.667 64.8129 63.4699C64.7708 63.324 64.7543 63.1923 64.7373 63.056C64.7236 62.9462 64.7095 62.8335 64.6813 62.7079C64.5795 62.2514 64.6016 61.7096 64.6222 61.202C64.6259 61.1118 64.6295 61.0227 64.6324 60.9354L64.6042 60.8873C64.695 60.7823 64.7133 60.6525 64.7311 60.5089C64.7884 60.0472 65.0684 59.2056 65.2501 58.8268C65.2776 58.7693 65.3081 58.7166 65.338 58.6649C65.4209 58.5219 65.4991 58.3869 65.4961 58.1785C65.5263 58.1671 65.5423 58.163 65.5502 58.1621C65.5483 58.168 65.5527 58.1675 65.5553 58.1658C65.5579 58.1641 65.5587 58.1612 65.5502 58.1621C65.5522 58.1558 65.5613 58.1422 65.5873 58.115L65.7014 57.9138C65.8853 57.5565 66.3577 56.9265 66.6594 56.5243C66.8081 56.326 66.9153 56.183 66.926 56.1554ZM45.0253 23.6449L40.401 5.33529C40.4184 5.07521 40.2556 4.54465 39.4658 4.50303C38.676 4.46142 24.9004 4.48569 18.1112 4.50303C17.6263 4.46836 16.6564 4.49265 16.6564 4.86715V22.7606C16.6218 23.0554 16.75 23.6449 17.5397 23.6449H45.0253Z" fill="#FFED00"/>
</g>
<defs>
<filter id="filter0_d_437_2" x="0" y="34.6378" width="48.3623" height="48.3622" filterUnits="userSpaceOnUse" color-interpolation-filters="sRGB">
<feFlood flood-opacity="0" result="BackgroundImageFix"/>
<feColorMatrix in="SourceAlpha" type="matrix" values="0 0 0 0 0 0 0 0 0 0 0 0 0 0 0 0 0 0 127 0" result="hardAlpha"/>
<feOffset dy="4"/>
<feGaussianBlur stdDeviation="2"/>
<feComposite in2="hardAlpha" operator="out"/>
<feColorMatrix type="matrix" values="0 0 0 0 0 0 0 0 0 0 0 0 0 0 0 0 0 0 0.25 0"/>
<feBlend mode="normal" in2="BackgroundImageFix" result="effect1_dropShadow_437_2"/>
<feBlend mode="normal" in="SourceGraphic" in2="effect1_dropShadow_437_2" result="shape"/>
</filter>
<filter id="filter1_d_437_2" x="0.828613" y="0" width="92.6855" height="82.2466" filterUnits="userSpaceOnUse" color-interpolation-filters="sRGB">
<feFlood flood-opacity="0" result="BackgroundImageFix"/>
<feColorMatrix in="SourceAlpha" type="matrix" values="0 0 0 0 0 0 0 0 0 0 0 0 0 0 0 0 0 0 127 0" result="hardAlpha"/>
<feOffset dy="4"/>
<feGaussianBlur stdDeviation="2"/>
<feComposite in2="hardAlpha" operator="out"/>
<feColorMatrix type="matrix" values="0 0 0 0 0 0 0 0 0 0 0 0 0 0 0 0 0 0 0.25 0"/>
<feBlend mode="normal" in2="BackgroundImageFix" result="effect1_dropShadow_437_2"/>
<feBlend mode="normal" in="SourceGraphic" in2="effect1_dropShadow_437_2" result="shape"/>
</filter>
</defs>
</svg>
