<svg width="41" height="57" viewBox="0 0 41 57" fill="none" xmlns="http://www.w3.org/2000/svg">
<path d="M23.0987 14.4932C23.0987 15.9436 21.9352 17.1195 20.5001 17.1195C19.0649 17.1195 17.9015 15.9436 17.9015 14.4932C17.9015 13.0427 19.0649 11.8669 20.5001 11.8669C21.9352 11.8669 23.0987 13.0427 23.0987 14.4932Z" fill="#FFED00"/>
<path fill-rule="evenodd" clip-rule="evenodd" d="M20.5 20.7184C23.9019 20.7184 26.6596 17.9313 26.6596 14.4932C26.6596 11.0551 23.9019 8.26792 20.5 8.26792C17.0981 8.26792 14.3404 11.0551 14.3404 14.4932C14.3404 17.9313 17.0981 20.7184 20.5 20.7184ZM20.5 19.042C22.9638 19.042 24.9862 17.0194 24.9862 14.4932C24.9862 11.967 22.9638 9.94439 20.5 9.94439C18.0362 9.94439 16.0139 11.967 16.0139 14.4932C16.0139 17.0194 18.0362 19.042 20.5 19.042Z" fill="#FFED00"/>
<path d="M20.5 43.285C22.3604 43.285 23.8685 41.7608 23.8685 39.8806C23.8685 38.0004 22.3604 36.4761 20.5 36.4761C18.6396 36.4761 17.1314 38.0004 17.1314 39.8806C17.1314 41.7608 18.6396 43.285 20.5 43.285Z" fill="#FFED00"/>
<path fill-rule="evenodd" clip-rule="evenodd" d="M29.3545 39.8319C29.3545 44.8011 25.3687 48.8294 20.4519 48.8294C15.5352 48.8294 11.5493 44.8011 11.5493 39.8319C11.5493 34.8628 15.5352 30.8345 20.4519 30.8345C25.3687 30.8345 29.3545 34.8628 29.3545 39.8319ZM26.8443 39.8319C26.8443 43.4332 23.9615 46.3147 20.4519 46.3147C16.9423 46.3147 14.0595 43.4332 14.0595 39.8319C14.0595 36.2307 16.9423 33.3492 20.4519 33.3492C23.9615 33.3492 26.8443 36.2307 26.8443 39.8319Z" fill="#FFED00"/>
<path fill-rule="evenodd" clip-rule="evenodd" d="M0 4.19118C0 1.87645 1.87309 0 4.18367 0H36.8163C39.1269 0 41 1.87645 41 4.19118V52.8088C41 55.1235 39.1269 57 36.8163 57H4.18367C1.8731 57 0 55.1235 0 52.8088V4.19118ZM28.1995 14.4932C28.1995 18.7908 24.7523 22.2748 20.5 22.2748C16.2476 22.2748 12.8004 18.7908 12.8004 14.4932C12.8004 10.1956 16.2476 6.71163 20.5 6.71163C24.7523 6.71163 28.1995 10.1956 28.1995 14.4932ZM20.4518 51.3584C26.6975 51.3584 31.7605 46.2413 31.7605 39.9292C31.7605 33.617 26.6975 28.5 20.4518 28.5C14.2062 28.5 9.14316 33.617 9.14316 39.9292C9.14316 46.2413 14.2062 51.3584 20.4518 51.3584Z" fill="#FFED00"/>
</svg>
