<svg width="104" height="61" viewBox="0 0 104 61" fill="none" xmlns="http://www.w3.org/2000/svg">
<g filter="url(#filter0_d_19_8)">
<path fill-rule="evenodd" clip-rule="evenodd" d="M18.7401 15.9526L18.0319 16.1425L18.3397 19.9484L19.165 21.2076H20.8648V39.3979H17.5361L17.8194 45.3458H20.8648V48.2332C22.2246 50.4044 22.3126 51.336 26.8453 52.0867L30.7406 52.4332L31.4489 11.4906C30.7878 11.2018 27.0973 9.80831 24.2643 8.79197C21.0914 8.60718 20.6287 10.1202 20.794 10.9286L21.0065 14.3357L18.7401 14.6822V15.9526Z" fill="#FFED00"/>
<path d="M14.6852 15.6893L6.54048 14.6499C4.76987 14.6499 3.56595 17.7105 5.26566 18.6922C9.74171 19.1542 15.1574 19.8086 17.3057 20.0781L18.3397 19.9484L18.0319 16.1425C16.6391 16.1099 16.4205 15.9821 14.6852 15.6893Z" fill="#FFED00"/>
<path d="M14.2381 39.9686L6.0934 38.9292C4.3228 38.9292 3.11887 41.9898 4.81858 42.9715C9.29464 43.4334 14.7103 44.0879 16.8586 44.3574L17.8926 44.2277L17.5849 40.4218C16.192 40.3892 15.9734 40.2613 14.2381 39.9686Z" fill="#FFED00"/>
<path d="M24.2643 8.79197C27.0973 9.80831 30.7878 11.2018 31.4489 11.4906L34.5651 11.0058L80.2464 3.89916L83.7875 3.34825C84.0236 3.09802 83.7734 2.34346 80.8838 1.32711C77.9942 0.310762 74.8638 0.36466 73.6598 0.518652L24.6498 7.2173C24.4609 7.27504 24.069 7.47138 24.0124 7.79477C23.9557 8.11815 24.1567 8.59431 24.2643 8.79197Z" fill="#FFED00"/>
<path d="M31.4489 11.4906L30.7406 52.4332L83.4334 40.1908C83.6223 40.1138 84 39.8559 84 39.4401C84 39.0243 83.8584 15.2056 83.7875 3.34825L80.2464 3.89916C80.5296 3.86951 81.1246 3.89107 81.2379 4.21445C81.2467 4.23954 81.255 4.41954 81.2629 4.73418C81.2788 5.36454 81.2929 6.53534 81.3054 8.0835C81.3134 9.07791 81.3208 10.228 81.3275 11.4906C81.3328 12.491 81.3377 13.562 81.3421 14.6822C81.3466 15.7908 81.3506 16.9475 81.3543 18.1315C81.3577 19.2298 81.3608 20.3517 81.3636 21.4804C81.3663 22.5763 81.3686 23.6787 81.3707 24.7724C81.3726 25.7256 81.3742 26.6722 81.3755 27.602C81.3778 29.1459 81.3741 29.0617 81.3755 30.5471C81.3765 31.5339 81.3772 32.4998 81.3778 33.4344C81.3783 34.2705 81.3788 35.0815 81.379 35.8598C81.3794 36.8188 81.3795 37.7282 81.3795 38.5739C81.4031 38.7087 81.3512 39.0243 80.9546 39.2091C80.558 39.3939 49.3436 46.2928 33.786 49.7191C33.668 49.6613 33.4178 49.4303 33.3611 48.9684C33.353 48.9024 33.3516 48.3474 33.3554 47.4092C33.3587 46.6338 33.3655 45.5967 33.3753 44.3574C33.383 43.3745 33.3925 42.2645 33.4035 41.057C33.4145 39.8542 33.4269 38.5547 33.4403 37.188C33.4522 35.9824 33.4649 34.7245 33.4782 33.4344C33.4899 32.2998 33.502 31.1403 33.5144 29.9696C33.5262 28.8593 33.5382 27.7389 33.5503 26.6203C33.5633 25.4201 33.5764 24.2218 33.5895 23.04C33.6013 21.9694 33.6131 20.9123 33.6246 19.8794C33.6389 18.6038 33.653 17.3651 33.6664 16.1836C33.6807 14.932 33.6944 13.7446 33.7072 12.6455C33.7099 12.4104 33.7126 12.1793 33.7152 11.9525C33.6444 11.6921 33.7152 11.138 34.5651 11.0058L31.4489 11.4906Z" fill="#FFED00"/>
<path d="M33.3554 47.4092L81.379 35.8598C81.3788 35.0815 81.3783 34.2705 81.3778 33.4344L33.3786 44.3566L33.3554 47.4092Z" fill="#FFED00"/>
<path d="M81.3755 30.5471V27.602L33.4403 37.188C33.4269 38.5547 33.4145 39.8542 33.4035 41.057L33.4005 41.4613L81.3755 30.5471Z" fill="#FFED00"/>
<path d="M33.4782 33.4344L81.3707 24.7724C81.3686 23.6787 81.3663 22.5763 81.3636 21.4804L33.5144 29.9696C33.502 31.1403 33.4899 32.2998 33.4782 33.4344Z" fill="#FFED00"/>
<path d="M33.5503 26.6203L81.3543 18.1315C81.3506 16.9475 81.3466 15.7908 81.3421 14.6822L33.5895 23.04C33.5764 24.2218 33.5633 25.4201 33.5503 26.6203Z" fill="#FFED00"/>
<path d="M33.6246 19.8794L81.3275 11.4906C81.3208 10.228 81.3134 9.07791 81.3054 8.0835L33.6664 16.1836C33.653 17.3651 33.6389 18.6038 33.6246 19.8794Z" fill="#FFED00"/>
<path d="M81.2379 4.21445C81.1246 3.89107 80.5296 3.86951 80.2464 3.89916L34.5651 11.0058C33.7152 11.138 33.6444 11.6921 33.7152 11.9525L33.7072 12.6455L81.2629 4.73418C81.255 4.41954 81.2467 4.23954 81.2379 4.21445Z" fill="#FFED00"/>
<path d="M88.3399 3.41828C88.4832 2.13061 87.8047 0.891115 86.6428 0.317876C85.3212 -0.334167 83.7228 0.0421566 82.8309 1.21535L81.2193 3.33529C82 5.43323 82 6.43323 82.6191 8.4474C83.5237 8.84033 84.4335 9.33623 85.2642 9.95559C87.9915 11.989 89.4249 15.5673 89.8007 17.1022C90.2592 18.8449 90.6106 23.2484 88.3487 26.9207C87.4897 28.3154 86.5238 29.3833 85.5893 30.1849C83.9177 31.6187 82.8215 34.1231 83.4516 36.2333C83.7276 37.1576 83.8586 38.2185 83.8702 38.9954C83.8767 39.436 84.0104 39.8766 84.3069 40.2025C84.769 40.7105 85.5174 40.8393 86.1227 40.5148L87.2952 39.8864C88.4849 39.2488 89.1473 37.9338 88.9517 36.5983L88.6676 34.6593C88.5865 34.1058 88.7812 33.5477 89.1891 33.1648C89.615 32.7649 90.2157 32.6101 90.7818 32.7544L92.3705 33.1594C93.7733 33.5169 95.2436 32.9044 95.9775 31.6566C96.6931 30.4401 96.5425 28.9009 95.6047 27.8461L94.5036 26.6077C94.1033 26.1575 93.9662 25.5314 94.1416 24.9551C94.309 24.4053 94.7386 23.9746 95.288 23.8058L96.8197 23.3352C98.2191 22.9052 99.1632 21.5986 99.132 20.1349C99.1016 18.709 98.1519 17.4667 96.784 17.0634L95.3786 16.6491C94.7013 16.4494 94.1777 15.9101 93.9981 15.2272C93.8342 14.6044 93.9776 13.9407 94.384 13.441L95.3851 12.21C96.2663 11.1264 96.3513 9.59916 95.5956 8.42454C94.8137 7.20916 93.3196 6.66107 91.9373 7.08251L90.7684 7.43886C90.0594 7.65504 89.2889 7.4712 88.7538 6.95818C88.2937 6.51707 88.0653 5.8869 88.1357 5.25344L88.3399 3.41828Z" fill="#FFED00"/>
</g>
<defs>
<filter id="filter0_d_19_8" x="0" y="0" width="103.133" height="60.4332" filterUnits="userSpaceOnUse" color-interpolation-filters="sRGB">
<feFlood flood-opacity="0" result="BackgroundImageFix"/>
<feColorMatrix in="SourceAlpha" type="matrix" values="0 0 0 0 0 0 0 0 0 0 0 0 0 0 0 0 0 0 127 0" result="hardAlpha"/>
<feOffset dy="4"/>
<feGaussianBlur stdDeviation="2"/>
<feComposite in2="hardAlpha" operator="out"/>
<feColorMatrix type="matrix" values="0 0 0 0 0 0 0 0 0 0 0 0 0 0 0 0 0 0 0.35 0"/>
<feBlend mode="normal" in2="BackgroundImageFix" result="effect1_dropShadow_19_8"/>
<feBlend mode="normal" in="SourceGraphic" in2="effect1_dropShadow_19_8" result="shape"/>
</filter>
</defs>
</svg>
