<svg width="72" height="65" viewBox="0 0 72 65" fill="none" xmlns="http://www.w3.org/2000/svg">
<g filter="url(#filter0_d_7_25)">
<path fill-rule="evenodd" clip-rule="evenodd" d="M18.2431 5.62658L12.3494 3.34785L8.25656 8.23085L12.3494 13.2766L10.876 16.3692L4.49114 17.3458L4 23.3682L9.89369 25.6469L10.876 29.3905L5.80085 33.7853L8.25656 38.9938L14.6414 37.5289L17.4245 40.4587L15.9511 46.6438L20.8625 49.5736L25.4465 45.0162L29.5393 45.6672L31.5039 51.6896H37.0702L38.7073 45.6672C39.4167 45.4502 41.2285 44.8208 42.8001 44.0396C44.3718 43.2583 45.8561 42.3034 46.4018 41.9236L60.4812 55.9215C61.6818 56.7354 64.5413 57.8747 66.3749 55.9215C68.6669 53.48 68.012 51.2013 67.5209 50.3875C67.128 49.7364 57.5344 39.9161 52.7867 35.0874C54.2055 34.165 57.6981 28.9022 57.0432 21.5777C55.5698 6.92872 45.2558 2.69678 43.7824 2.04571C42.309 1.06911 32.1588 -2.02346 24.1368 2.04571C22.8271 2.6224 19.6619 4.67325 18.2431 5.62658ZM16.9334 18.8107C17.8502 13.4719 22.4451 9.53299 24.6279 8.23085C25.7739 7.36276 29.0154 5.62658 32.8136 5.62658C41.8179 5.62658 47.2204 11.1607 48.8575 14.9043C50.4947 18.6479 51.9681 25.3214 48.8575 30.6927C45.747 36.064 40.8356 39.4821 33.9596 39.9704C27.0836 40.4587 21.3536 35.0874 19.7165 33.1342C18.0794 31.181 15.7874 25.4841 16.9334 18.8107Z" fill="#FFED00"/>
<path d="M22.6634 28.9022C25.1191 30.6384 31.1437 34.3061 35.5967 35.0874C40.0498 35.8687 37.4522 36.6065 35.5967 36.8778C32.3225 36.9321 25.0536 35.9012 22.1722 31.3437C19.2909 26.7863 21.2991 27.8171 22.6634 28.9022Z" fill="#FFED00"/>
</g>
<defs>
<filter id="filter0_d_7_25" x="0" y="0" width="72" height="65" filterUnits="userSpaceOnUse" color-interpolation-filters="sRGB">
<feFlood flood-opacity="0" result="BackgroundImageFix"/>
<feColorMatrix in="SourceAlpha" type="matrix" values="0 0 0 0 0 0 0 0 0 0 0 0 0 0 0 0 0 0 127 0" result="hardAlpha"/>
<feOffset dy="4"/>
<feGaussianBlur stdDeviation="2"/>
<feComposite in2="hardAlpha" operator="out"/>
<feColorMatrix type="matrix" values="0 0 0 0 0 0 0 0 0 0 0 0 0 0 0 0 0 0 0.35 0"/>
<feBlend mode="normal" in2="BackgroundImageFix" result="effect1_dropShadow_7_25"/>
<feBlend mode="normal" in="SourceGraphic" in2="effect1_dropShadow_7_25" result="shape"/>
</filter>
</defs>
</svg>
