<svg width="78" height="68" viewBox="0 0 78 68" fill="none" xmlns="http://www.w3.org/2000/svg">
<g filter="url(#filter0_d_7_33)">
<path fill-rule="evenodd" clip-rule="evenodd" d="M9.41148 18.0158C13.85 11.8653 24.4379 5.95947 29.6971 4.03745C33.5693 2.17368 45.3015 -0.785073 57.0914 0.19341C70.8279 1.33344 73.1165 7.63464 73.7852 9.47579C73.834 9.60995 73.8741 9.72043 73.9094 9.80351C74.4296 11.0266 72.6958 40.9053 69.0548 50.3407C65.5337 59.4652 60.5533 59.439 58.3473 59.4273C58.3067 59.4271 58.2671 59.4269 58.2285 59.4268C58.1955 59.4266 58.1632 59.4266 58.1317 59.4266C57.7108 59.4266 56.7007 59.4337 55.294 59.4437L55.2918 59.4437C49.7449 59.483 38.0356 59.5659 31.9511 59.4266C30.1735 59.3859 28.4429 59.5539 26.7485 59.7183C21.1711 60.2598 15.9848 60.7633 10.7985 53.6605C4.03665 44.3999 3.86327 29.5479 4.03665 28.1501C4.05133 28.0317 4.06228 27.9159 4.07339 27.7984C4.19357 26.5272 4.33293 25.0531 9.41148 18.0158ZM26.7496 9.80351C20.9934 12.704 16.5895 16.4432 14.7863 18.54C12.5324 21.1609 10.7985 24.306 9.41148 28.1501H68.0145C69.2859 23.4324 71.5515 13.333 70.4418 10.6772C69.0548 7.35731 62.9864 2.81435 50.5029 4.03745C40.5161 5.01594 32.5059 6.903 26.7496 9.80351ZM19.4676 18.0158C18.0806 18.8545 15.0753 23.1412 13.746 25.1797L13.2259 26.228C30.5062 26.3445 65.7605 26.5076 66.454 26.228C67.0279 25.9967 67.2219 24.0043 67.4886 21.2646C67.6248 19.8656 67.78 18.2717 68.0145 16.6179C68.5693 12.704 68.2456 11.4926 68.0145 11.3761L64.7202 11.9003L61.426 17.1421L66.454 20.2873L59.3454 18.0158L63.1598 9.80351C62.0617 9.39581 58.9986 8.37073 55.531 7.53203C52.3099 6.75297 51.7817 6.81819 47.1371 7.39157C46.7815 7.43546 46.4019 7.48234 45.995 7.53203C40.2734 8.23095 32.6446 10.6772 29.6971 11.9003C26.7496 13.1234 25.1314 14.23 23.9755 15.0454L26.7496 16.0938L23.1086 23.7818L23.9755 19.2389C23.0508 19.0059 20.8547 18.4351 19.4676 18.0158ZM46.8619 18.0158L43.2209 12.2497L55.7044 22.5587L51.1964 20.9862L49.1159 23.6071L39.9266 23.9566L45.8216 21.1609L40.4468 18.0158H46.8619Z" fill="#FFED00"/>
</g>
<defs>
<filter id="filter0_d_7_33" x="0" y="0" width="78" height="68" filterUnits="userSpaceOnUse" color-interpolation-filters="sRGB">
<feFlood flood-opacity="0" result="BackgroundImageFix"/>
<feColorMatrix in="SourceAlpha" type="matrix" values="0 0 0 0 0 0 0 0 0 0 0 0 0 0 0 0 0 0 127 0" result="hardAlpha"/>
<feOffset dy="4"/>
<feGaussianBlur stdDeviation="2"/>
<feComposite in2="hardAlpha" operator="out"/>
<feColorMatrix type="matrix" values="0 0 0 0 0 0 0 0 0 0 0 0 0 0 0 0 0 0 0.35 0"/>
<feBlend mode="normal" in2="BackgroundImageFix" result="effect1_dropShadow_7_33"/>
<feBlend mode="normal" in="SourceGraphic" in2="effect1_dropShadow_7_33" result="shape"/>
</filter>
</defs>
</svg>
