<svg width="80" height="67" viewBox="0 0 80 67" fill="none" xmlns="http://www.w3.org/2000/svg">
<path d="M0.0441145 4.91778C0.12401 1.57369 3.47297 0.245889 5.13747 0H58.8673C60.2655 0 63.5612 0.737672 63.5612 4.426C63.5612 11.8027 63.9166 12.0486 61.8193 12.0486C58.8673 12.0486 59.4665 8.90119 59.4665 6.47508C59.4665 4.04898 57.0697 3.60637 55.8712 3.68834H7.93382C4.41841 3.81948 4.6405 5.3276 4.63812 6.47508C4.60483 22.5398 4.55823 55.5709 4.63812 59.1773C4.71802 62.7837 8.26672 63.3028 10.0311 63.1115H54.9724C58.7275 63.1115 59.5331 60.7073 59.4665 59.5052C59.4333 56.0081 59.3867 47.473 59.4665 41.3094C59.5464 35.1457 64.0605 34.0147 64.0605 37.8669C64.0938 45.2709 64.1404 60.6854 64.0605 63.1115C63.9807 65.5376 60.5651 66.6906 58.8673 66.9638C42.4887 66.9911 8.81267 67.0294 5.13747 66.9638C1.46226 66.8982 0.210562 64.3683 0.0441145 63.1115C0.0108247 45.107 -0.0357812 8.26187 0.0441145 4.91778Z" fill="#FFED00"/>
<path d="M66.3576 9.91753C66.6572 9.45307 67.6159 8.37663 69.054 7.78649C70.4922 7.19636 71.7172 5.62813 72.15 4.91778C75.2127 3.14192 81.0384 1.32781 79.84 8.27827C78.7414 9.91753 77.3432 11.5568 77.3432 12.4584C77.3432 12.8166 77.2959 13.1748 77.1888 13.5227C78.4497 13.406 79.6743 13.7583 78.3419 15.7369C76.2447 18.8515 66.1578 32.7033 64.8595 32.2115C63.8209 31.8181 66.2244 29.1515 67.556 27.8674L76.2446 16.4746L75.3219 16.0737C71.0198 21.2127 52.9699 43.3481 43.4874 54.9972L34.7988 58.6036C33.9665 59.2593 32.4019 60.0133 32.8014 57.7839C33.2008 55.5545 33.3673 51.5001 33.4006 49.7516L66.3576 9.91753Z" fill="#FFED00"/>
<path d="M16.2417 8.87751C16.3201 8.72517 16.4324 8.649 16.5787 8.649H18.0128C18.0703 8.649 18.1199 8.67157 18.1617 8.71671C18.2035 8.76185 18.2244 8.81545 18.2244 8.87751V14.3447C18.2244 14.4068 18.2035 14.4604 18.1617 14.5055C18.1199 14.5506 18.0703 14.5732 18.0128 14.5732H16.5944C16.5369 14.5732 16.4873 14.5506 16.4455 14.5055C16.4037 14.4604 16.3828 14.4068 16.3828 14.3447V11.7211L15.8107 12.9398C15.795 12.9793 15.7584 13.0245 15.701 13.0752C15.6435 13.126 15.5704 13.1514 15.4815 13.1514H14.9486C14.8598 13.1514 14.7867 13.126 14.7292 13.0752C14.6717 13.0245 14.6352 12.9793 14.6195 12.9398L14.0474 11.7211V14.3447C14.0474 14.4068 14.0265 14.4604 13.9847 14.5055C13.9429 14.5506 13.8933 14.5732 13.8358 14.5732H12.4174C12.3599 14.5732 12.3103 14.5506 12.2685 14.5055C12.2267 14.4604 12.2058 14.4068 12.2058 14.3447V8.87751C12.2058 8.81545 12.2267 8.76185 12.2685 8.71671C12.3103 8.67157 12.3599 8.649 12.4174 8.649H13.8515C13.9978 8.649 14.1101 8.72517 14.1885 8.87751L15.2151 10.9087L16.2417 8.87751Z" fill="#FFED00"/>
<path d="M25.1098 14.277C25.1307 14.3109 25.1412 14.3475 25.1412 14.387C25.1412 14.4378 25.1229 14.4829 25.0863 14.5224C25.055 14.5563 25.0158 14.5732 24.9688 14.5732H22.9469C22.8267 14.5732 22.7327 14.5281 22.6648 14.4378L21.4579 12.5505H21.2228V14.3447C21.2228 14.4068 21.2019 14.4604 21.1601 14.5055C21.1183 14.5506 21.0687 14.5732 21.0112 14.5732H19.3969C19.3394 14.5732 19.2897 14.5506 19.248 14.5055C19.2062 14.4604 19.1853 14.4068 19.1853 14.3447V8.87751C19.1853 8.81545 19.2062 8.76185 19.248 8.71671C19.2897 8.67157 19.3394 8.649 19.3969 8.649H21.0112C21.0687 8.649 21.1183 8.67157 21.1601 8.71671C21.2019 8.76185 21.2228 8.81545 21.2228 8.87751V10.6209H21.3952L22.5394 8.79288C22.6177 8.69696 22.7144 8.649 22.8293 8.649H24.718C24.765 8.649 24.8042 8.66875 24.8355 8.70825C24.8721 8.7421 24.8904 8.78442 24.8904 8.83519C24.8904 8.88033 24.8773 8.91983 24.8512 8.95368L22.9939 11.3995L25.1098 14.277Z" fill="#FFED00"/>
<path d="M27.4029 14.2855C27.335 14.4773 27.2175 14.5732 27.0503 14.5732H25.5691C25.5221 14.5732 25.4803 14.5563 25.4437 14.5224C25.4124 14.4829 25.3967 14.4378 25.3967 14.387L25.4046 14.3362L27.113 8.92829C27.1339 8.85494 27.1731 8.79006 27.2305 8.73364C27.288 8.67721 27.3664 8.649 27.4656 8.649H29.6442C29.7435 8.649 29.8219 8.67721 29.8793 8.73364C29.9368 8.79006 29.976 8.85494 29.9969 8.92829L31.7053 14.3362L31.7131 14.387C31.7131 14.4378 31.6949 14.4829 31.6583 14.5224C31.6269 14.5563 31.5877 14.5732 31.5407 14.5732H30.0596C29.8924 14.5732 29.7748 14.4773 29.7069 14.2855L29.511 13.693H27.5988L27.4029 14.2855ZM28.5549 10.2824L27.9985 12.0427H29.1113L28.5549 10.2824Z" fill="#FFED00"/>
<path d="M37.3917 8.649C37.4492 8.649 37.4988 8.67157 37.5406 8.71671C37.5824 8.76185 37.6033 8.81545 37.6033 8.87751V12.7536H38.003C38.0604 12.7536 38.1101 12.7762 38.1519 12.8213C38.1937 12.8665 38.2146 12.9201 38.2146 12.9821V15.3941C38.2146 15.4562 38.1937 15.5098 38.1519 15.5549C38.1101 15.6001 38.0604 15.6226 38.003 15.6226H36.7334C36.676 15.6226 36.6263 15.6001 36.5845 15.5549C36.5427 15.5098 36.5218 15.4562 36.5218 15.3941V14.5732H33.8495V15.3941C33.8495 15.4562 33.8286 15.5098 33.7868 15.5549C33.745 15.6001 33.6954 15.6226 33.6379 15.6226H32.3762C32.3187 15.6226 32.2691 15.6001 32.2273 15.5549C32.1855 15.5154 32.1646 15.4618 32.1646 15.3941V12.9821C32.1646 12.9201 32.1855 12.8665 32.2273 12.8213C32.2691 12.7762 32.3187 12.7536 32.3762 12.7536H32.5016C32.674 12.7536 32.8072 12.5928 32.9013 12.2712C32.9953 11.9496 33.0423 11.36 33.0423 10.5024V8.87751C33.0423 8.81545 33.0632 8.76185 33.105 8.71671C33.1468 8.67157 33.1964 8.649 33.2539 8.649H37.3917ZM34.9231 10.6717C34.9231 11.1344 34.8996 11.5321 34.8526 11.865C34.8056 12.1922 34.7272 12.4885 34.6175 12.7536H35.7225V10.384H34.9231V10.6717Z" fill="#FFED00"/>
<path d="M17.9188 19.1398C17.9762 19.1398 18.0259 19.1624 18.0677 19.2075C18.1095 19.2526 18.1304 19.3062 18.1304 19.3683V20.7309C18.1304 20.7929 18.1095 20.8465 18.0677 20.8917C18.0259 20.9368 17.9762 20.9594 17.9188 20.9594H16.2339V24.8355C16.2339 24.8976 16.213 24.9512 16.1712 24.9963C16.1294 25.0414 16.0797 25.064 16.0223 25.064H14.4079C14.3504 25.064 14.3008 25.0414 14.259 24.9963C14.2172 24.9512 14.1963 24.8976 14.1963 24.8355V20.9594H12.5114C12.454 20.9594 12.4043 20.9368 12.3625 20.8917C12.3207 20.8465 12.2998 20.7929 12.2998 20.7309V19.3683C12.2998 19.3062 12.3207 19.2526 12.3625 19.2075C12.4043 19.1624 12.454 19.1398 12.5114 19.1398H17.9188Z" fill="#FFED00"/>
<path d="M24.5769 19.1398C24.6344 19.1398 24.684 19.1624 24.7258 19.2075C24.7676 19.2526 24.7885 19.3062 24.7885 19.3683V20.7309C24.7885 20.7929 24.7676 20.8465 24.7258 20.8917C24.684 20.9368 24.6344 20.9594 24.5769 20.9594H22.892V24.8355C22.892 24.8976 22.8711 24.9512 22.8293 24.9963C22.7875 25.0414 22.7379 25.064 22.6804 25.064H21.0661C21.0086 25.064 20.959 25.0414 20.9172 24.9963C20.8754 24.9512 20.8545 24.8976 20.8545 24.8355V20.9594H19.1696C19.1121 20.9594 19.0625 20.9368 19.0207 20.8917C18.9789 20.8465 18.958 20.7929 18.958 20.7309V19.3683C18.958 19.3062 18.9789 19.2526 19.0207 19.2075C19.0625 19.1624 19.1121 19.1398 19.1696 19.1398H24.5769Z" fill="#FFED00"/>
<path d="M31.768 24.7678C31.7889 24.8016 31.7993 24.8383 31.7993 24.8778C31.7993 24.9286 31.7811 24.9737 31.7445 25.0132C31.7131 25.0471 31.674 25.064 31.6269 25.064H29.6051C29.4849 25.064 29.3909 25.0189 29.3229 24.9286L28.1161 23.0413H27.881V24.8355C27.881 24.8976 27.8601 24.9512 27.8183 24.9963C27.7765 25.0414 27.7268 25.064 27.6694 25.064H26.055C25.9975 25.064 25.9479 25.0414 25.9061 24.9963C25.8643 24.9512 25.8434 24.8976 25.8434 24.8355V19.3683C25.8434 19.3062 25.8643 19.2526 25.9061 19.2075C25.9479 19.1624 25.9975 19.1398 26.055 19.1398H27.6694C27.7268 19.1398 27.7765 19.1624 27.8183 19.2075C27.8601 19.2526 27.881 19.3062 27.881 19.3683V21.1117H28.0534L29.1975 19.2837C29.2759 19.1877 29.3726 19.1398 29.4875 19.1398H31.3762C31.4232 19.1398 31.4624 19.1595 31.4937 19.199C31.5303 19.2329 31.5486 19.2752 31.5486 19.326C31.5486 19.3711 31.5355 19.4106 31.5094 19.4445L29.6521 21.8903L31.768 24.7678Z" fill="#FFED00"/>
<path d="M14.4941 33.2697C14.4941 33.5011 14.5646 33.6788 14.7057 33.8029C14.852 33.927 15.0479 33.9891 15.2935 33.9891C15.5129 33.9891 15.6749 33.9496 15.7793 33.8706C15.8838 33.7916 15.9726 33.6731 16.0458 33.5152C16.1137 33.3685 16.2051 33.2951 16.3201 33.2951H18.0128C18.0598 33.2951 18.099 33.3149 18.1304 33.3544C18.1669 33.3882 18.1852 33.4305 18.1852 33.4813C18.1852 33.8255 18.0781 34.164 17.8639 34.4969C17.6497 34.8241 17.3232 35.0978 16.8843 35.3178C16.4507 35.5322 15.9204 35.6394 15.2935 35.6394C14.7344 35.6394 14.2355 35.5491 13.7966 35.3686C13.363 35.1824 13.0182 34.9003 12.7622 34.5223C12.5062 34.1386 12.3782 33.6619 12.3782 33.092V32.0934C12.3782 31.5235 12.5062 31.0496 12.7622 30.6716C13.0182 30.2879 13.363 30.0058 13.7966 29.8252C14.2355 29.639 14.7344 29.546 15.2935 29.546C15.9204 29.546 16.4507 29.656 16.8843 29.876C17.3232 30.0904 17.6497 30.3641 17.8639 30.6969C18.0781 31.0242 18.1852 31.3599 18.1852 31.7041C18.1852 31.7548 18.1669 31.8 18.1304 31.8395C18.099 31.8733 18.0598 31.8902 18.0128 31.8902H16.3201C16.2051 31.8902 16.1137 31.8169 16.0458 31.6702C15.9726 31.5122 15.8838 31.3937 15.7793 31.3148C15.6749 31.2358 15.5129 31.1963 15.2935 31.1963C15.0479 31.1963 14.852 31.2583 14.7057 31.3825C14.5646 31.5066 14.4941 31.6843 14.4941 31.9156V33.2697Z" fill="#FFED00"/>
<path d="M25.1098 35.2586C25.1307 35.2924 25.1412 35.3291 25.1412 35.3686C25.1412 35.4194 25.1229 35.4645 25.0863 35.504C25.055 35.5379 25.0158 35.5548 24.9688 35.5548H22.9469C22.8267 35.5548 22.7327 35.5097 22.6648 35.4194L21.4579 33.5321H21.2228V35.3263C21.2228 35.3884 21.2019 35.442 21.1601 35.4871C21.1183 35.5322 21.0687 35.5548 21.0112 35.5548H19.3969C19.3394 35.5548 19.2897 35.5322 19.248 35.4871C19.2062 35.442 19.1853 35.3884 19.1853 35.3263V29.8591C19.1853 29.797 19.2062 29.7434 19.248 29.6983C19.2897 29.6532 19.3394 29.6306 19.3969 29.6306H21.0112C21.0687 29.6306 21.1183 29.6532 21.1601 29.6983C21.2019 29.7434 21.2228 29.797 21.2228 29.8591V31.6025H21.3952L22.5394 29.7745C22.6177 29.6785 22.7144 29.6306 22.8293 29.6306H24.718C24.765 29.6306 24.8042 29.6503 24.8355 29.6898C24.8721 29.7237 24.8904 29.766 24.8904 29.8168C24.8904 29.8619 24.8773 29.9014 24.8512 29.9353L22.9939 32.3811L25.1098 35.2586Z" fill="#FFED00"/>
<path d="M17.9188 50.6122C17.9762 50.6122 18.0259 50.6347 18.0677 50.6799C18.1095 50.725 18.1304 50.7786 18.1304 50.8407V52.2032C18.1304 52.2653 18.1095 52.3189 18.0677 52.364C18.0259 52.4092 17.9762 52.4317 17.9188 52.4317H16.2339V56.3079C16.2339 56.3699 16.213 56.4235 16.1712 56.4687C16.1294 56.5138 16.0797 56.5364 16.0223 56.5364H14.4079C14.3504 56.5364 14.3008 56.5138 14.259 56.4687C14.2172 56.4235 14.1963 56.3699 14.1963 56.3079V52.4317H12.5114C12.454 52.4317 12.4043 52.4092 12.3625 52.364C12.3207 52.3189 12.2998 52.2653 12.2998 52.2032V50.8407C12.2998 50.7786 12.3207 50.725 12.3625 50.6799C12.4043 50.6347 12.454 50.6122 12.5114 50.6122H17.9188Z" fill="#FFED00"/>
<path d="M24.7885 54.0905C24.7885 54.9538 24.5221 55.5913 23.9892 56.0032C23.4615 56.4151 22.7562 56.621 21.8733 56.621C20.9903 56.621 20.2824 56.4151 19.7495 56.0032C19.2218 55.5913 18.958 54.9481 18.958 54.0736V53.0749C18.958 52.4994 19.0834 52.0227 19.3342 51.6447C19.5902 51.261 19.9376 50.9789 20.3764 50.7983C20.8153 50.6178 21.3142 50.5275 21.8733 50.5275C22.4323 50.5275 22.9286 50.6178 23.3622 50.7983C23.8011 50.9789 24.1485 51.2582 24.4045 51.6362C24.6605 52.0142 24.7885 52.4882 24.7885 53.058V54.0905ZM21.0739 54.2513C21.0739 54.4826 21.1444 54.6604 21.2855 54.7845C21.4318 54.9086 21.6277 54.9707 21.8733 54.9707C22.1188 54.9707 22.3121 54.9086 22.4532 54.7845C22.5995 54.6547 22.6726 54.4742 22.6726 54.2429V52.9057C22.6726 52.6744 22.5995 52.4966 22.4532 52.3725C22.3121 52.2427 22.1188 52.1778 21.8733 52.1778C21.6277 52.1778 21.4318 52.2399 21.2855 52.364C21.1444 52.4882 21.0739 52.6659 21.0739 52.8972V54.2513Z" fill="#FFED00"/>
</svg>
