<svg width="92" height="79" viewBox="0 0 92 79" fill="none" xmlns="http://www.w3.org/2000/svg">
<g filter="url(#filter0_d_8_11)">
<path d="M5.0018 37.9223L5.66966 27.2306L4.66786 27.0635L4 38.2564C4.66786 38.8133 6.50449 39.9938 8.50809 40.2611C10.5117 40.5284 12.1257 39.3701 12.6822 38.7576C12.9049 35.5835 13.3501 29.0014 13.3501 28.0658C12.5153 27.2306 11.0126 26.3953 9.00898 26.3953C8.34112 26.3953 7.22801 26.7294 7.00539 27.0635C6.78277 29.9592 6.37092 35.7171 6.50449 35.5835C6.67146 35.4164 8.34112 35.2494 9.67685 35.5835C10.7454 35.8508 11.5691 36.5858 11.8474 36.9199C11.6267 38.6863 10.6539 39.2588 8.84202 39.2588C7.33932 39.2588 5.83663 38.4792 5.0018 37.9223Z" fill="#FCE116"/>
<path d="M9.50988 25.8941C8.4413 25.4932 8.34112 25.3929 7.84022 24.5576C8.50808 19.5459 9.8438 16.5389 11.1795 13.5318C12.5152 10.5247 14.5189 8.35297 15.8546 7.51766C17.1903 6.68234 20.0288 5.1788 24.5368 7.18352C28.9378 9.14059 31.5494 11.6941 33.386 15.0353C34.8887 18.0424 35.5566 21.2165 38.562 27.8988C42.2352 33.4117 49.0809 32.4094 52.7541 31.5741C55.9265 30.8527 66.5751 28.29 73.4579 29.2353C81.9732 30.4047 83.8098 33.4117 85.4795 36.4188C86.9925 39.1436 88.1509 45.1058 87.984 49.6164C87.7923 54.7952 86.1473 58.1364 85.8134 58.6376C85.4795 59.1387 84.1438 60.1411 82.975 59.3058C81.8062 58.8046 82.1725 56.9401 82.4741 56.2988C83.8098 53.4587 83.7542 47.7788 83.4759 45.44C83.2533 43.1568 82.1402 37.5214 79.4687 35.2494C76.1294 32.4094 65.7457 33.1218 64.4417 33.4117C62.9391 33.7458 52.7541 35.7505 51.4184 35.9176C50.0827 36.0846 45.7415 36.92 40.7326 34.7482C34.7244 32.1432 32.2173 23.7223 32.0503 23.2212C31.9167 22.8202 30.7146 18.8776 29.7128 17.04C28.711 15.2023 27.5422 13.9266 25.5386 12.1953C23.412 10.3576 20.3627 9.52235 18.5261 10.6918C16.3555 12.3624 15.0198 14.8682 14.1849 17.04C13.3501 19.2118 12.5153 21.2165 11.6804 25.2259C11.1795 25.727 10.5785 26.2951 9.50988 25.8941Z" fill="#FCE116"/>
<path d="M25.8726 18.0423H28.878C30.0467 20.938 31.85 25.6268 32.3842 27.2306C32.9185 28.8343 34.7218 31.9082 36.5584 33.4117C36.7254 33.8572 37.4934 35.4164 39.2299 38.0893C40.9663 40.7623 44.9624 42.5442 46.7433 43.1011C53.255 44.9388 56.5943 44.1035 60.6015 41.4305C64.6087 38.7576 65.8331 36.0847 66.6123 34.247C67.0576 34.1913 68.4155 34.0465 70.2856 33.9129C72.1556 33.7792 73.5136 34.0799 73.9588 34.247L77.6321 38.0893L74.7936 43.1011L68.7829 41.7646L66.6123 43.9364L67.948 50.1176L63.106 53.1246L58.431 48.7811L55.0916 49.4493L52.9211 55.1293L47.2442 54.7952L45.9085 48.7811L42.4022 47.4446L37.3932 51.287L33.0521 47.9458L35.2227 41.9317L33.0521 38.9246L26.8744 39.2588L25.0377 34.0799L30.0467 30.2376L29.8798 26.7294L24.5368 23.7223L25.8726 18.0423Z" fill="#FCE116"/>
<path d="M79.1348 58.1364L78.4669 57.3011L69.7847 64.3176C69.6177 64.8744 69.6177 66.4893 70.9534 68.494C72.2892 70.4987 74.4041 70.9999 75.2945 70.9999L83.4759 64.6517C83.4759 64.2062 83.3423 63.0145 82.808 61.8116C82.2737 60.6088 80.8044 59.4171 80.1366 58.9717L73.291 64.1505C73.5136 64.1505 74.226 64.5849 75.2945 66.3223C76.3631 68.0597 76.185 68.9395 75.9624 69.1623L74.7936 69.9976C74.1814 69.7748 72.7233 69.0955 71.7883 68.1599C70.8532 67.2244 70.7308 65.4313 70.7865 64.6517L79.1348 58.1364Z" fill="#FCE116"/>
<path d="M35.5566 5.51293L31.2155 9.52234L34.5548 15.2023L37.2263 21.3835C38.0054 19.7129 40.4654 15.8037 44.0719 13.5317C47.6783 11.2597 52.4758 11.2486 54.4238 11.527C56.65 11.8055 61.9039 13.4649 65.1096 17.8753C68.3154 22.2856 68.5602 26.5066 68.282 28.0658C69.6177 28.0102 71.7883 27.8988 73.6249 28.0658C75.2392 28.2127 77.0199 28.7898 77.799 29.2352L79.9696 28.4L79.3017 22.3858L73.124 20.8823L72.2892 18.7106L75.9624 13.5317L72.2892 8.68704L66.4453 10.8588L64.6087 9.35527L65.1096 3.00706L59.4328 0.835289L55.5925 5.84705L52.9211 5.51293L49.9157 0L44.0719 1.16941L43.571 7.35057L41.0665 8.51997L35.5566 5.51293Z" fill="#FCE116"/>
<path d="M5.0018 37.9223L5.66966 27.2306L4.66786 27.0635L4 38.2564C4.66786 38.8133 6.50449 39.9938 8.50809 40.2611C10.5117 40.5284 12.1257 39.3701 12.6822 38.7576C12.9049 35.5835 13.3501 29.0014 13.3501 28.0658C12.5153 27.2306 11.0126 26.3953 9.00898 26.3953C8.34112 26.3953 7.22801 26.7294 7.00539 27.0635C6.78277 29.9592 6.37092 35.7171 6.50449 35.5835C6.67146 35.4164 8.34112 35.2494 9.67685 35.5835C10.7454 35.8508 11.5691 36.5858 11.8474 36.9199C11.6267 38.6863 10.6539 39.2588 8.84202 39.2588C7.33932 39.2588 5.83663 38.4792 5.0018 37.9223Z" stroke="black"/>
<path d="M9.50988 25.8941C8.4413 25.4932 8.34112 25.3929 7.84022 24.5576C8.50808 19.5459 9.8438 16.5389 11.1795 13.5318C12.5152 10.5247 14.5189 8.35297 15.8546 7.51766C17.1903 6.68234 20.0288 5.1788 24.5368 7.18352C28.9378 9.14059 31.5494 11.6941 33.386 15.0353C34.8887 18.0424 35.5566 21.2165 38.562 27.8988C42.2352 33.4117 49.0809 32.4094 52.7541 31.5741C55.9265 30.8527 66.5751 28.29 73.4579 29.2353C81.9732 30.4047 83.8098 33.4117 85.4795 36.4188C86.9925 39.1436 88.1509 45.1058 87.984 49.6164C87.7923 54.7952 86.1473 58.1364 85.8134 58.6376C85.4795 59.1387 84.1438 60.1411 82.975 59.3058C81.8062 58.8046 82.1725 56.9401 82.4741 56.2988C83.8098 53.4587 83.7542 47.7788 83.4759 45.44C83.2533 43.1568 82.1402 37.5214 79.4687 35.2494C76.1294 32.4094 65.7457 33.1218 64.4417 33.4117C62.9391 33.7458 52.7541 35.7505 51.4184 35.9176C50.0827 36.0846 45.7415 36.92 40.7326 34.7482C34.7244 32.1432 32.2173 23.7223 32.0503 23.2212C31.9167 22.8202 30.7146 18.8776 29.7128 17.04C28.711 15.2023 27.5422 13.9266 25.5386 12.1953C23.412 10.3576 20.3627 9.52235 18.5261 10.6918C16.3555 12.3624 15.0198 14.8682 14.1849 17.04C13.3501 19.2118 12.5153 21.2165 11.6804 25.2259C11.1795 25.727 10.5785 26.2951 9.50988 25.8941Z" stroke="black"/>
<path d="M25.8726 18.0423H28.878C30.0467 20.938 31.85 25.6268 32.3842 27.2306C32.9185 28.8343 34.7218 31.9082 36.5584 33.4117C36.7254 33.8572 37.4934 35.4164 39.2299 38.0893C40.9663 40.7623 44.9624 42.5442 46.7433 43.1011C53.255 44.9388 56.5943 44.1035 60.6015 41.4305C64.6087 38.7576 65.8331 36.0847 66.6123 34.247C67.0576 34.1913 68.4155 34.0465 70.2856 33.9129C72.1556 33.7792 73.5136 34.0799 73.9588 34.247L77.6321 38.0893L74.7936 43.1011L68.7829 41.7646L66.6123 43.9364L67.948 50.1176L63.106 53.1246L58.431 48.7811L55.0916 49.4493L52.9211 55.1293L47.2442 54.7952L45.9085 48.7811L42.4022 47.4446L37.3932 51.287L33.0521 47.9458L35.2227 41.9317L33.0521 38.9246L26.8744 39.2588L25.0377 34.0799L30.0467 30.2376L29.8798 26.7294L24.5368 23.7223L25.8726 18.0423Z" stroke="black"/>
<path d="M79.1348 58.1364L78.4669 57.3011L69.7847 64.3176C69.6177 64.8744 69.6177 66.4893 70.9534 68.494C72.2892 70.4987 74.4041 70.9999 75.2945 70.9999L83.4759 64.6517C83.4759 64.2062 83.3423 63.0145 82.808 61.8116C82.2737 60.6088 80.8044 59.4171 80.1366 58.9717L73.291 64.1505C73.5136 64.1505 74.226 64.5849 75.2945 66.3223C76.3631 68.0597 76.185 68.9395 75.9624 69.1623L74.7936 69.9976C74.1814 69.7748 72.7233 69.0955 71.7883 68.1599C70.8532 67.2244 70.7308 65.4313 70.7865 64.6517L79.1348 58.1364Z" stroke="black"/>
<path d="M35.5566 5.51293L31.2155 9.52234L34.5548 15.2023L37.2263 21.3835C38.0054 19.7129 40.4654 15.8037 44.0719 13.5317C47.6783 11.2597 52.4758 11.2486 54.4238 11.527C56.65 11.8055 61.9039 13.4649 65.1096 17.8753C68.3154 22.2856 68.5602 26.5066 68.282 28.0658C69.6177 28.0102 71.7883 27.8988 73.6249 28.0658C75.2392 28.2127 77.0199 28.7898 77.799 29.2352L79.9696 28.4L79.3017 22.3858L73.124 20.8823L72.2892 18.7106L75.9624 13.5317L72.2892 8.68704L66.4453 10.8588L64.6087 9.35527L65.1096 3.00706L59.4328 0.835289L55.5925 5.84705L52.9211 5.51293L49.9157 0L44.0719 1.16941L43.571 7.35057L41.0665 8.51997L35.5566 5.51293Z" stroke="black"/>
</g>
<defs>
<filter id="filter0_d_8_11" x="0" y="0" width="92" height="78.9999" filterUnits="userSpaceOnUse" color-interpolation-filters="sRGB">
<feFlood flood-opacity="0" result="BackgroundImageFix"/>
<feColorMatrix in="SourceAlpha" type="matrix" values="0 0 0 0 0 0 0 0 0 0 0 0 0 0 0 0 0 0 127 0" result="hardAlpha"/>
<feOffset dy="4"/>
<feGaussianBlur stdDeviation="2"/>
<feComposite in2="hardAlpha" operator="out"/>
<feColorMatrix type="matrix" values="0 0 0 0 0 0 0 0 0 0 0 0 0 0 0 0 0 0 0.25 0"/>
<feBlend mode="normal" in2="BackgroundImageFix" result="effect1_dropShadow_8_11"/>
<feBlend mode="normal" in="SourceGraphic" in2="effect1_dropShadow_8_11" result="shape"/>
</filter>
</defs>
</svg>
