<svg width="73" height="74" viewBox="0 0 73 74" fill="none" xmlns="http://www.w3.org/2000/svg">
<g filter="url(#filter0_d_26_17)">
<path d="M33.2543 9.68809C31.0721 11.188 30.7975 11.188 30.5685 10.3547C30.1657 8.88815 30.1416 7.41052 30.3095 6.68836C30.4214 6.13285 30.6116 4.92184 31.8202 5.85509C32.2326 6.17352 32.4917 6.35505 33.2543 7.02166C33.9258 7.22998 33.9258 7.02166 34.5972 7.02166V5.18848C34.5972 4.92184 32.4917 1.68877 33.2543 0.688856C34.017 -0.311059 39.7243 -0.144406 40.3045 0.688856C40.8847 1.52212 38.7937 5.18848 38.7937 5.18848V6.68836C38.7937 8.18823 38.9616 9.35478 38.9616 12.0212C40.3045 12.3545 42.3955 12.6879 43.7383 13.8544C44.4098 14.8543 44.4098 14.6877 44.8367 16.8542C44.9936 17.6501 44.7808 22.1871 44.8367 25.1868C43.8296 26.2978 41.7817 28.7532 41.6474 29.6864C41.5131 30.6197 41.2557 32.8528 41.1438 33.8528L38.7937 36.5192L38.9616 60.1839C36.5556 60.7394 31.24 61.1505 29.2257 58.3507V32.6862L26.8756 33.8528V58.3507C26.5958 58.9618 24.9044 60.6839 22.0843 60.6839C18.5592 60.6839 12.4396 61.1838 11.4324 58.3507C11.4324 55.351 11.3412 47.6849 11.4324 43.8519C9.97763 44.2408 6.74379 46.1125 5.96965 51.6846C5.29821 56.5175 7.31254 58.8507 12.4396 62.0171C14.398 63.1281 23.2691 64.812 28.5542 64.3502C36.1846 63.6836 42.38 62.5583 43.4938 59.5173C43.6884 58.986 43.7936 58.7413 43.8766 58.5162C43.8813 58.2752 43.8891 58.0423 43.9062 57.8211C43.2385 57.7101 42.5888 57.6841 41.8919 57.6841C41.8919 57.6841 41.6474 39.019 42.5633 37.6858C43.4793 36.3526 44.8367 36.1859 44.8367 36.1859C44.6129 33.9083 46.0884 29.3531 48.1027 28.0199C51.7901 25.5794 61.6995 24.5202 64.0495 24.0202C65.9296 23.6203 64.0288 22.687 66.6586 22.5204C67.7424 22.5204 68.1358 25.3868 66.6586 25.5201C64.8122 25.6868 52.8735 27.6985 51.2154 28.3532C49.9492 28.8532 47.5225 30.5197 47.1868 33.8528C46.9182 36.5192 47.1868 36.5192 47.1868 36.5192C47.1868 36.5192 49.0668 36.6859 49.2011 38.6857C49.3354 40.6855 48.9213 52.1846 48.6975 57.6841C48.573 57.6878 48.4545 57.6905 48.3397 57.6924C47.8443 57.7077 46.9637 57.7415 46.081 57.7706C45.8814 59.9406 44.4152 63.2863 40.0454 64.3502C35.2541 65.5168 31.3166 66.6834 19.5664 65.5168C10.1662 64.5835 6.3966 60.6839 5.0537 57.8508C3.95532 54.0178 3.37216 51.3642 5.05369 47.5183C7.31254 42.3521 9.83045 42.1854 11.4324 41.3521V17.5208C11.7122 16.0765 13.5811 12.1212 16.804 11.188C16.804 10.388 16.8806 10.1881 16.804 9.68809H15.6289L13.4468 11.188C13.111 11.1324 12.4396 10.888 12.4396 10.3547V6.68836C12.4396 6.41059 12.641 5.85507 13.4468 5.85507C14.2525 5.85507 15.2373 6.6328 15.6289 7.02166H16.804V5.85507C16.804 5.85507 14.1948 1.52212 14.7896 0.688856C15.3844 -0.144407 22.2522 -0.144408 22.9236 0.688856C23.595 1.52212 20.8326 5.85507 20.8326 5.85507V11.188C22.5879 11.5213 26.8756 14.3544 26.8756 18.5207V31.0197L29.2257 29.6864V18.1874C29.3935 16.6875 31.0386 13.3545 34.9329 12.0212C34.9329 11.3546 34.821 9.96585 34.9329 9.68809H33.2543Z" fill="#FFED00"/>
<path d="M61.3637 11.6879C63.0983 14.1877 65.1815 18.854 65.3158 19.5206C61.7347 17.0208 54.942 11.5546 56.4191 9.68809C57.8963 7.82156 60.323 10.188 61.3637 11.6879Z" fill="#FFED00"/>
<path d="M66.6586 18.1874C68.0015 13.5211 70.3468 3.022 68.0015 3.022C64.8888 3.022 66.211 12.7434 66.6586 18.1874Z" fill="#FFED00"/>
</g>
<defs>
<filter id="filter0_d_26_17" x="0" y="0" width="73" height="74" filterUnits="userSpaceOnUse" color-interpolation-filters="sRGB">
<feFlood flood-opacity="0" result="BackgroundImageFix"/>
<feColorMatrix in="SourceAlpha" type="matrix" values="0 0 0 0 0 0 0 0 0 0 0 0 0 0 0 0 0 0 127 0" result="hardAlpha"/>
<feOffset dy="4"/>
<feGaussianBlur stdDeviation="2"/>
<feComposite in2="hardAlpha" operator="out"/>
<feColorMatrix type="matrix" values="0 0 0 0 0 0 0 0 0 0 0 0 0 0 0 0 0 0 0.35 0"/>
<feBlend mode="normal" in2="BackgroundImageFix" result="effect1_dropShadow_26_17"/>
<feBlend mode="normal" in="SourceGraphic" in2="effect1_dropShadow_26_17" result="shape"/>
</filter>
</defs>
</svg>
