<svg width="72" height="72" viewBox="0 0 72 72" fill="none" xmlns="http://www.w3.org/2000/svg">
<g filter="url(#filter0_d_8_12)">
<path d="M44.0798 33.8732L34.5819 23.1433C33.8176 23.36 31.929 24.3463 30.4879 26.5573C28.6866 29.3211 29.1365 32.8978 30.2216 34.6861C31.3067 36.4744 33.9268 38.1002 37.857 38.1002C41.0012 38.1002 43.3156 35.2822 44.0798 33.8732Z" fill="#FFED00"/>
<path fill-rule="evenodd" clip-rule="evenodd" d="M21.9725 11.5569C21.4812 11.5568 18.206 7.00475 17.8785 7.00475C17.551 7.00474 16.7322 8.46791 16.4047 8.46792C16.0772 8.46793 14.7671 7.98021 14.6033 7.9802C14.4396 7.98018 12.3107 10.4188 12.3107 10.5814C12.3107 10.744 12.3107 12.0446 12.3107 12.2072C12.3107 12.3697 11.4919 14.1581 11.3282 14.1581C11.1644 14.1581 9.52684 14.1581 9.36308 14.1581C9.19932 14.1581 7.48178 16.9218 7.56174 17.0844C7.64171 17.247 8.05302 18.8728 8.05302 19.0353C8.05302 19.1979 7.23423 21.3114 7.07047 21.3114C6.90672 21.3114 5.92416 21.6365 5.7604 21.6365C5.59664 21.6365 4.61409 25.3758 4.77785 25.5383C4.94161 25.7009 5.59664 26.5138 5.7604 26.6764C5.92416 26.839 5.92416 28.9524 5.7604 29.115C5.59664 29.2776 4.28658 29.7653 4.12282 29.9279C3.95906 30.0905 3.95906 33.5045 4.12282 33.6671C4.28658 33.8297 5.26913 34.48 5.43288 34.6426C5.59664 34.8051 5.92416 37.0812 5.7604 37.2438C5.59664 37.4064 4.94161 38.0567 4.77785 38.2192C4.61409 38.3818 5.59664 42.6088 5.7604 42.6088C5.92416 42.6088 6.90672 42.6088 7.07047 42.6088C7.23423 42.6088 8.21677 44.5597 8.05302 44.7222C7.88926 44.8848 7.39799 46.1854 7.39799 46.348C7.39798 46.5106 9.03557 49.5995 9.36308 49.5995C9.6906 49.5995 10.8369 49.5995 11.0007 49.5995C11.1644 49.5995 12.802 51.3878 12.802 51.5504C12.802 51.713 12.147 53.0136 12.147 53.1762C12.147 53.3387 14.7671 55.9399 14.9309 55.9399C15.0946 55.94 16.2409 55.4522 16.4047 55.4522C16.5684 55.4522 18.6973 56.7528 18.6973 56.9154C18.6973 57.078 18.6973 58.5412 18.6973 58.7037C18.6973 58.8663 21.8087 60.3295 21.9725 60.2482C22.1362 60.1669 22.7913 59.8095 22.955 59.7605C23.1188 59.7115 25.2476 60.6546 25.2476 60.8172C25.2476 60.9798 25.2476 61.6301 25.2476 61.7927C25.2476 61.9552 29.6691 63.2558 29.8329 63.0933C29.9966 62.9307 30.3241 62.443 30.4879 62.2804C30.6517 62.1178 33.4355 62.1178 33.5993 62.4429C33.7631 62.7681 34.4181 63.7436 34.5819 63.9061C34.7456 64.0687 37.857 63.9874 38.0208 63.9061C38.1845 63.8248 38.6758 62.3617 38.8396 62.2804C39.0033 62.1991 41.4597 61.874 41.6234 61.9552C41.7872 62.0365 42.7697 63.012 42.9335 63.0933C43.0973 63.1745 46.2087 62.5242 46.2087 62.2804C46.2086 62.0365 46.5362 60.8985 46.6999 60.8172C46.8637 60.7359 49.1563 59.4353 49.3201 59.354C49.4839 59.2727 50.6301 59.7605 50.7939 59.8418C50.9577 59.923 53.5778 58.9476 53.5778 58.7037C53.5777 58.4599 53.4141 56.9967 53.5778 56.9154C53.7415 56.8341 55.7066 55.5335 55.8704 55.4522C56.0342 55.3709 57.1804 55.8587 57.3442 55.9399C57.508 56.0212 59.4731 53.9077 59.3093 53.8265C59.1455 53.7452 56.3617 46.7544 56.3617 46.348C56.3616 45.9416 57.8355 43.4216 58.163 43.2591C58.4906 43.0965 64.8771 43.9094 65.2046 43.7468C65.5321 43.5842 67.4973 37.5689 67.3335 37.2438C67.1697 36.9186 62.0932 33.6671 61.9295 33.342C61.7657 33.0168 61.7657 30.4156 61.9295 30.0905C62.0932 29.7653 67.8248 26.8389 67.9885 26.5138C68.1523 26.1886 66.5147 20.0108 66.1872 19.6856C65.8597 19.3605 59.4731 19.8482 59.1456 19.6856C58.818 19.5231 57.3443 17.7347 57.3442 17.4096C57.3442 17.0844 60.7832 11.2317 60.7831 10.744C60.7831 10.2562 56.3617 6.02929 55.8704 6.02929C55.3791 6.0293 49.9751 9.76852 49.6476 9.76853C49.32 9.76853 47.0275 8.79307 46.8637 8.46792C46.6999 8.14277 47.0275 1.80233 46.8637 1.47718C46.6999 1.15202 39.9858 -0.148577 39.6583 0.0139982C39.3308 0.176574 36.8745 6.19188 36.5469 6.35444C36.2194 6.51701 33.5993 6.51703 33.2718 6.35444C32.9443 6.19186 29.5054 0.989463 29.1778 0.826875C28.8503 0.664287 22.6275 3.26549 22.4637 3.59065C22.3 3.91582 23.6101 9.93108 23.6101 10.2562C23.6101 10.5814 22.4637 11.5569 21.9725 11.5569ZM24.5926 14.9709C24.5926 14.9709 25.2476 13.9955 24.5926 13.3452C23.9376 12.6949 23.1188 13.1826 23.1188 13.1826C22.5183 13.5078 19.5161 16.2715 19.5161 16.2715C19.5161 16.2715 16.896 18.8728 14.9309 22.7746C12.6324 27.3383 12.9658 34.3174 13.2933 36.9186C13.5776 39.1771 18.206 50.575 27.5403 53.1762C36.8745 55.7774 42.9335 53.8265 46.2087 52.5259C48.8288 51.4854 51.9948 48.4073 53.2503 46.9983C53.2503 46.9983 53.9053 46.0229 53.2503 45.3725C52.5952 44.7222 51.7765 45.21 51.7765 45.21C50.7939 46.2938 47.748 48.3964 44.7349 50.0872C41.2582 52.0381 35.8581 52.7357 31.6342 51.8755C25.2476 50.5749 21.3174 47.1609 18.206 41.7959C15.0946 36.4309 15.4221 31.7162 16.7322 26.6764C17.7803 22.6445 20.9899 17.4096 24.5926 14.9709ZM20.1711 22.7746C22.2672 18.8728 23.9376 17.7347 26.5577 15.7838L27.8678 14.9709L29.5054 14.1581C34.8548 12.4781 46.8964 11.6219 52.2677 21.6365C58.9818 34.1548 51.6127 41.4707 50.7939 42.6088C49.9751 43.7468 48.01 47.486 39.8221 49.5995C33.2718 51.2903 27.3765 48.5699 25.2476 46.9983C23.2279 45.2642 18.9921 40.8204 18.206 36.9186C17.2235 32.0414 17.551 27.6518 20.1711 22.7746Z" fill="#FFED00"/>
<path d="M39.1671 45.8603C38.512 45.21 38.512 44.2345 39.1671 42.7713C39.8221 41.3082 41.1322 39.9466 42.606 39.0321C44.0798 38.1176 46.2087 37.2438 46.8637 37.4064C47.3877 37.5364 49.1563 39.5199 49.9751 40.4953C49.8113 40.983 48.297 42.7375 46.8637 43.9094C45.4304 45.0812 43.5885 45.6977 42.4422 46.0229C41.2959 46.348 39.8221 46.5106 39.1671 45.8603Z" fill="#FFED00"/>
<path d="M22.477 38.1002C22.7063 36.9622 27.357 37.4174 29.1911 38.5879C31.4837 40.0511 33.2426 42.0708 33.9401 43.7903C34.5818 45.3726 35.1152 46.92 34.4313 47.0418C33.7631 47.1609 30.6936 46.9589 27.3898 44.6032C24.5926 42.6088 23.7738 41.6333 23.4463 41.1456C23.1188 40.6579 22.3132 38.9131 22.477 38.1002Z" fill="#FFED00"/>
<path d="M21.0744 30.0833C20.2464 29.6198 19.9719 28.6536 20.2051 27.0238C20.4382 25.3939 21.3449 23.6841 22.5387 22.3719C23.7324 21.0598 25.5825 19.6073 26.2732 19.5877C26.8258 19.5721 29.1253 21.049 30.206 21.7894C30.182 22.3176 29.1848 24.473 28.1033 26.0289C27.0219 27.5848 25.3819 28.7032 24.3448 29.3413C23.3077 29.9795 21.9023 30.5468 21.0744 30.0833Z" fill="#FFED00"/>
<path d="M44.0798 33.8732L34.5819 23.1433C33.8176 23.36 31.929 24.3463 30.4879 26.5573C28.6866 29.3211 29.1365 32.8978 30.2216 34.6861C31.3067 36.4744 33.9268 38.1002 37.857 38.1002C41.0012 38.1002 43.3156 35.2822 44.0798 33.8732Z" stroke="#F71C1C"/>
<path fill-rule="evenodd" clip-rule="evenodd" d="M21.9725 11.5569C21.4812 11.5568 18.206 7.00475 17.8785 7.00475C17.551 7.00474 16.7322 8.46791 16.4047 8.46792C16.0772 8.46793 14.7671 7.98021 14.6033 7.9802C14.4396 7.98018 12.3107 10.4188 12.3107 10.5814C12.3107 10.744 12.3107 12.0446 12.3107 12.2072C12.3107 12.3697 11.4919 14.1581 11.3282 14.1581C11.1644 14.1581 9.52684 14.1581 9.36308 14.1581C9.19932 14.1581 7.48178 16.9218 7.56174 17.0844C7.64171 17.247 8.05302 18.8728 8.05302 19.0353C8.05302 19.1979 7.23423 21.3114 7.07047 21.3114C6.90672 21.3114 5.92416 21.6365 5.7604 21.6365C5.59664 21.6365 4.61409 25.3758 4.77785 25.5383C4.94161 25.7009 5.59664 26.5138 5.7604 26.6764C5.92416 26.839 5.92416 28.9524 5.7604 29.115C5.59664 29.2776 4.28658 29.7653 4.12282 29.9279C3.95906 30.0905 3.95906 33.5045 4.12282 33.6671C4.28658 33.8297 5.26913 34.48 5.43288 34.6426C5.59664 34.8051 5.92416 37.0812 5.7604 37.2438C5.59664 37.4064 4.94161 38.0567 4.77785 38.2192C4.61409 38.3818 5.59664 42.6088 5.7604 42.6088C5.92416 42.6088 6.90672 42.6088 7.07047 42.6088C7.23423 42.6088 8.21677 44.5597 8.05302 44.7222C7.88926 44.8848 7.39799 46.1854 7.39799 46.348C7.39798 46.5106 9.03557 49.5995 9.36308 49.5995C9.6906 49.5995 10.8369 49.5995 11.0007 49.5995C11.1644 49.5995 12.802 51.3878 12.802 51.5504C12.802 51.713 12.147 53.0136 12.147 53.1762C12.147 53.3387 14.7671 55.9399 14.9309 55.9399C15.0946 55.94 16.2409 55.4522 16.4047 55.4522C16.5684 55.4522 18.6973 56.7528 18.6973 56.9154C18.6973 57.078 18.6973 58.5412 18.6973 58.7037C18.6973 58.8663 21.8087 60.3295 21.9725 60.2482C22.1362 60.1669 22.7913 59.8095 22.955 59.7605C23.1188 59.7115 25.2476 60.6546 25.2476 60.8172C25.2476 60.9798 25.2476 61.6301 25.2476 61.7927C25.2476 61.9552 29.6691 63.2558 29.8329 63.0933C29.9966 62.9307 30.3241 62.443 30.4879 62.2804C30.6517 62.1178 33.4355 62.1178 33.5993 62.4429C33.7631 62.7681 34.4181 63.7436 34.5819 63.9061C34.7456 64.0687 37.857 63.9874 38.0208 63.9061C38.1845 63.8248 38.6758 62.3617 38.8396 62.2804C39.0033 62.1991 41.4597 61.874 41.6234 61.9552C41.7872 62.0365 42.7697 63.012 42.9335 63.0933C43.0973 63.1745 46.2087 62.5242 46.2087 62.2804C46.2086 62.0365 46.5362 60.8985 46.6999 60.8172C46.8637 60.7359 49.1563 59.4353 49.3201 59.354C49.4839 59.2727 50.6301 59.7605 50.7939 59.8418C50.9577 59.923 53.5778 58.9476 53.5778 58.7037C53.5777 58.4599 53.4141 56.9967 53.5778 56.9154C53.7415 56.8341 55.7066 55.5335 55.8704 55.4522C56.0342 55.3709 57.1804 55.8587 57.3442 55.9399C57.508 56.0212 59.4731 53.9077 59.3093 53.8265C59.1455 53.7452 56.3617 46.7544 56.3617 46.348C56.3616 45.9416 57.8355 43.4216 58.163 43.2591C58.4906 43.0965 64.8771 43.9094 65.2046 43.7468C65.5321 43.5842 67.4973 37.5689 67.3335 37.2438C67.1697 36.9186 62.0932 33.6671 61.9295 33.342C61.7657 33.0168 61.7657 30.4156 61.9295 30.0905C62.0932 29.7653 67.8248 26.8389 67.9885 26.5138C68.1523 26.1886 66.5147 20.0108 66.1872 19.6856C65.8597 19.3605 59.4731 19.8482 59.1456 19.6856C58.818 19.5231 57.3443 17.7347 57.3442 17.4096C57.3442 17.0844 60.7832 11.2317 60.7831 10.744C60.7831 10.2562 56.3617 6.02929 55.8704 6.02929C55.3791 6.0293 49.9751 9.76852 49.6476 9.76853C49.32 9.76853 47.0275 8.79307 46.8637 8.46792C46.6999 8.14277 47.0275 1.80233 46.8637 1.47718C46.6999 1.15202 39.9858 -0.148577 39.6583 0.0139982C39.3308 0.176574 36.8745 6.19188 36.5469 6.35444C36.2194 6.51701 33.5993 6.51703 33.2718 6.35444C32.9443 6.19186 29.5054 0.989463 29.1778 0.826875C28.8503 0.664287 22.6275 3.26549 22.4637 3.59065C22.3 3.91582 23.6101 9.93108 23.6101 10.2562C23.6101 10.5814 22.4637 11.5569 21.9725 11.5569ZM24.5926 14.9709C24.5926 14.9709 25.2476 13.9955 24.5926 13.3452C23.9376 12.6949 23.1188 13.1826 23.1188 13.1826C22.5183 13.5078 19.5161 16.2715 19.5161 16.2715C19.5161 16.2715 16.896 18.8728 14.9309 22.7746C12.6324 27.3383 12.9658 34.3174 13.2933 36.9186C13.5776 39.1771 18.206 50.575 27.5403 53.1762C36.8745 55.7774 42.9335 53.8265 46.2087 52.5259C48.8288 51.4854 51.9948 48.4073 53.2503 46.9983C53.2503 46.9983 53.9053 46.0229 53.2503 45.3725C52.5952 44.7222 51.7765 45.21 51.7765 45.21C50.7939 46.2938 47.748 48.3964 44.7349 50.0872C41.2582 52.0381 35.8581 52.7357 31.6342 51.8755C25.2476 50.5749 21.3174 47.1609 18.206 41.7959C15.0946 36.4309 15.4221 31.7162 16.7322 26.6764C17.7803 22.6445 20.9899 17.4096 24.5926 14.9709ZM20.1711 22.7746C22.2672 18.8728 23.9376 17.7347 26.5577 15.7838L27.8678 14.9709L29.5054 14.1581C34.8548 12.4781 46.8964 11.6219 52.2677 21.6365C58.9818 34.1548 51.6127 41.4707 50.7939 42.6088C49.9751 43.7468 48.01 47.486 39.8221 49.5995C33.2718 51.2903 27.3765 48.5699 25.2476 46.9983C23.2279 45.2642 18.9921 40.8204 18.206 36.9186C17.2235 32.0414 17.551 27.6518 20.1711 22.7746Z" stroke="#F71C1C"/>
<path d="M39.1671 45.8603C38.512 45.21 38.512 44.2345 39.1671 42.7713C39.8221 41.3082 41.1322 39.9466 42.606 39.0321C44.0798 38.1176 46.2087 37.2438 46.8637 37.4064C47.3877 37.5364 49.1563 39.5199 49.9751 40.4953C49.8113 40.983 48.297 42.7375 46.8637 43.9094C45.4304 45.0812 43.5885 45.6977 42.4422 46.0229C41.2959 46.348 39.8221 46.5106 39.1671 45.8603Z" stroke="#F71C1C"/>
<path d="M22.477 38.1002C22.7063 36.9622 27.357 37.4174 29.1911 38.5879C31.4837 40.0511 33.2426 42.0708 33.9401 43.7903C34.5818 45.3726 35.1152 46.92 34.4313 47.0418C33.7631 47.1609 30.6936 46.9589 27.3898 44.6032C24.5926 42.6088 23.7738 41.6333 23.4463 41.1456C23.1188 40.6579 22.3132 38.9131 22.477 38.1002Z" stroke="#F71C1C"/>
<path d="M21.0744 30.0833C20.2464 29.6198 19.9719 28.6536 20.2051 27.0238C20.4382 25.3939 21.3449 23.6841 22.5387 22.3719C23.7324 21.0598 25.5825 19.6073 26.2732 19.5877C26.8258 19.5721 29.1253 21.049 30.206 21.7894C30.182 22.3176 29.1848 24.473 28.1033 26.0289C27.0219 27.5848 25.3819 28.7032 24.3448 29.3413C23.3077 29.9795 21.9023 30.5468 21.0744 30.0833Z" stroke="#F71C1C"/>
</g>
<defs>
<filter id="filter0_d_8_12" x="0" y="0" width="72" height="72" filterUnits="userSpaceOnUse" color-interpolation-filters="sRGB">
<feFlood flood-opacity="0" result="BackgroundImageFix"/>
<feColorMatrix in="SourceAlpha" type="matrix" values="0 0 0 0 0 0 0 0 0 0 0 0 0 0 0 0 0 0 127 0" result="hardAlpha"/>
<feOffset dy="4"/>
<feGaussianBlur stdDeviation="2"/>
<feComposite in2="hardAlpha" operator="out"/>
<feColorMatrix type="matrix" values="0 0 0 0 0 0 0 0 0 0 0 0 0 0 0 0 0 0 0.25 0"/>
<feBlend mode="normal" in2="BackgroundImageFix" result="effect1_dropShadow_8_12"/>
<feBlend mode="normal" in="SourceGraphic" in2="effect1_dropShadow_8_12" result="shape"/>
</filter>
</defs>
</svg>
